<svg xmlns="http://www.w3.org/2000/svg" width="1104" height="997" viewBox="0 0 1104 997" role="img" aria-label="bluetape-rs-async">
<defs>
  <filter id="shadow" x="-8%" y="-8%" width="116%" height="116%"><feDropShadow dx="0" dy="7" stdDeviation="8" flood-color="#1f2937" flood-opacity="0.10"/></filter>
  <marker id="arrow" markerWidth="8" markerHeight="8" refX="7" refY="4" orient="auto" markerUnits="strokeWidth"><path d="M 1 1 L 7 4 L 1 7 Z" fill="#758297"/></marker>
  <style>
    .canvas{fill:#f7f9fc}.frame{fill:#fff;stroke:#d8e0ea;stroke-width:1.5}
    .body{fill:#fbfcff;stroke:#e5eaf1;stroke-width:1.2}.footer{fill:#f8fafc;stroke:#d8e0ea;stroke-width:1.2}
    .title{font-family:"Architects Daughter","Comic Sans MS",cursive;font-size:40px;font-weight:400;fill:#102033}
    .subtitle,.footerText{font-family:"Comic Mono",monospace;font-size:15px;font-weight:400;fill:#536273}
    .label{font-family:"Architects Daughter","Comic Sans MS",cursive;font-size:23px;font-weight:400;fill:#102033}
    .small{font-family:"Comic Mono",monospace;font-size:13px;font-weight:400;fill:#536273}
    .card{stroke-width:2.0;filter:url(#shadow)}.line{stroke:#758297;stroke-width:2.1;fill:none;marker-end:url(#arrow)}
  </style>
</defs>
<rect class="canvas" width="1104" height="997"/>
<rect class="frame" x="28" y="24" width="1048" height="949" rx="28"/>
<text class="title" x="58" y="70">bluetape-rs-async</text>
<text class="subtitle" x="62" y="101">Graphviz-derived task group and async control boundary</text>
<rect class="body" x="54" y="142" width="995.6886" height="743.4292" rx="18"/>
<g>
<path class="line" d="M 293.1 447.2 L 293.1 447.2 L 342.1 447.2 L 342.1 447.2"/>
<path class="line" d="M 753.3 447.2 L 753.3 447.2 L 802.8 447.2 L 802.8 447.2"/>
<g transform="translate(72.0,302.3)">
  <rect class="card" x="0" y="0" width="221.6" height="289.3" rx="14" fill="#FFFFFF" stroke="#CBD5E1"/>
  <text class="label" x="110.8" y="42.0" text-anchor="middle">Inputs</text>
  <text class="small" x="110.8" y="72.0" text-anchor="middle">items</text>
  <text class="small" x="110.8" y="97.0" text-anchor="middle">async operation</text>
  <text class="small" x="110.8" y="122.0" text-anchor="middle">max concurrency</text>
  <text class="small" x="110.8" y="147.0" text-anchor="middle">deadline or token</text>
</g>
<g transform="translate(360.7,328.6)">
  <rect class="card" x="0" y="0" width="393.1" height="236.8" rx="14" fill="#FFE1DF" stroke="#DC6B82"/>
  <text class="label" x="196.6" y="42.0" text-anchor="middle">bluetape-rs-async</text>
  <text class="small" x="196.6" y="72.0" text-anchor="middle">task group policy</text>
  <text class="small" x="196.6" y="97.0" text-anchor="middle">cancellation and timeout control</text>
  <text class="small" x="196.6" y="122.0" text-anchor="middle">modules: task_group | control</text>
</g>
<g transform="translate(821.6,302.3)">
  <rect class="card" x="0" y="0" width="210.1" height="289.3" rx="14" fill="#FFFFFF" stroke="#CBD5E1"/>
  <text class="label" x="105.1" y="42.0" text-anchor="middle">Outputs</text>
  <text class="small" x="105.1" y="72.0" text-anchor="middle">ordered results</text>
  <text class="small" x="105.1" y="97.0" text-anchor="middle">TaskGroupReport</text>
  <text class="small" x="105.1" y="122.0" text-anchor="middle">typed errors</text>
  <text class="small" x="105.1" y="147.0" text-anchor="middle">shutdown signals</text>
</g>
<g transform="translate(389.3,683.2)">
  <rect class="card" x="0" y="0" width="335.9" height="184.3" rx="14" fill="#F2F4F7" stroke="#8CA0B8"/>
  <text class="label" x="168.0" y="42.0" text-anchor="middle">Route meaning</text>
  <text class="small" x="168.0" y="72.0" text-anchor="middle">left edge: caller input</text>
  <text class="small" x="168.0" y="97.0" text-anchor="middle">right edge: returned output</text>
</g>
</g>
<rect class="footer" x="54" y="903.4292" width="995.6886" height="36" rx="12"/>
<text class="footerText" x="552" y="927.4292" text-anchor="middle">This crate wraps task lifecycle policy, not a replacement runtime for Tokio.</text>
</svg>