<?xml version="1.0" encoding="UTF-8" standalone="no"?>
<!DOCTYPE svg PUBLIC "-//W3C//DTD SVG 1.1//EN"
 "http://www.w3.org/Graphics/SVG/1.1/DTD/svg11.dtd">
<!-- Generated by graphviz version 15.0.0 (20260523.1842)
 -->
<!-- Title: G Pages: 1 -->
<svg width="706pt" height="468pt"
 viewBox="0.00 0.00 706.00 468.00" xmlns="http://www.w3.org/2000/svg" xmlns:xlink="http://www.w3.org/1999/xlink">
<g id="graph0" class="graph" transform="scale(1 1) rotate(0) translate(25.2 442.7)">
<title>G</title>
<polygon fill="#fbfcff" stroke="none" points="-25.2,25.2 -25.2,-442.7 680.33,-442.7 680.33,25.2 -25.2,25.2"/>
<text xml:space="preserve" text-anchor="start" x="202.31" y="-379.5" font-family="Architects Daughter" font-size="30.00" fill="#243042">bluetape&#45;rs&#45;logging</text>
<text xml:space="preserve" text-anchor="start" x="88.31" y="-346.75" font-family="Comic Mono" font-size="15.00" fill="#667085">Tracing conventions without installing a global subscriber</text>
<!-- input&#45;&gt;crate -->
<g id="edge1" class="edge">
<title>input&#45;&gt;crate</title>
<path fill="none" stroke="#9aa4b2" stroke-width="2.2" d="M130.73,-248C130.73,-248 159.97,-248 159.97,-248"/>
<polygon fill="#9aa4b2" stroke="#9aa4b2" stroke-width="2.2" points="159.97,-250.8 167.97,-248 159.97,-245.2 159.97,-250.8"/>
</g>
<!-- crate&#45;&gt;output -->
<g id="edge2" class="edge">
<title>crate&#45;&gt;output</title>
<path fill="none" stroke="#9aa4b2" stroke-width="2.2" d="M477.16,-248C477.16,-248 506.54,-248 506.54,-248"/>
<polygon fill="#9aa4b2" stroke="#9aa4b2" stroke-width="2.2" points="506.54,-250.8 514.54,-248 506.54,-245.2 506.54,-250.8"/>
</g>
<!-- crate&#45;&gt;legend -->
<!-- input -->
<g id="node1" class="node">
<title>input</title>
<polygon fill="#ffffff" stroke="none" points="0,-162.75 0,-333.5 130.75,-333.5 130.75,-162.75 0,-162.75"/>
<text xml:space="preserve" text-anchor="start" x="36.5" y="-303.75" font-family="Architects Daughter" font-size="22.00" fill="#243042">Inputs</text>
<text xml:space="preserve" text-anchor="start" x="8" y="-268.25" font-family="Comic Mono" font-size="13.00" fill="#667085">filter directives</text>
<text xml:space="preserve" text-anchor="start" x="8" y="-237.25" font-family="Comic Mono" font-size="13.00" fill="#667085">writers</text>
<text xml:space="preserve" text-anchor="start" x="8" y="-206.25" font-family="Comic Mono" font-size="13.00" fill="#667085">request IDs</text>
<text xml:space="preserve" text-anchor="start" x="8" y="-175.25" font-family="Comic Mono" font-size="13.00" fill="#667085">test scope</text>
</g>
<!-- crate -->
<g id="node2" class="node">
<title>crate</title>
<polygon fill="#dcf7ea" stroke="none" points="171.25,-178.25 171.25,-318 477.5,-318 477.5,-178.25 171.25,-178.25"/>
<text xml:space="preserve" text-anchor="start" x="232.12" y="-288.25" font-family="Architects Daughter" font-size="22.00" fill="#243042">bluetape&#45;rs&#45;logging</text>
<text xml:space="preserve" text-anchor="start" x="179.25" y="-252.75" font-family="Comic Mono" font-size="13.00" fill="#667085">subscriber builders</text>
<text xml:space="preserve" text-anchor="start" x="179.25" y="-221.75" font-family="Comic Mono" font-size="13.00" fill="#667085">correlation ID boundary</text>
<text xml:space="preserve" text-anchor="start" x="179.25" y="-190.75" font-family="Comic Mono" font-size="13.00" fill="#667085">modules: subscriber | capture | correlation</text>
</g>
<!-- output -->
<g id="node3" class="node">
<title>output</title>
<polygon fill="#ffffff" stroke="none" points="517.62,-162.75 517.62,-333.5 655.12,-333.5 655.12,-162.75 517.62,-162.75"/>
<text xml:space="preserve" text-anchor="start" x="547" y="-303.75" font-family="Architects Daughter" font-size="22.00" fill="#243042">Outputs</text>
<text xml:space="preserve" text-anchor="start" x="525.62" y="-268.25" font-family="Comic Mono" font-size="13.00" fill="#667085">Layered subscriber</text>
<text xml:space="preserve" text-anchor="start" x="525.62" y="-237.25" font-family="Comic Mono" font-size="13.00" fill="#667085">CapturedLogs</text>
<text xml:space="preserve" text-anchor="start" x="525.62" y="-206.25" font-family="Comic Mono" font-size="13.00" fill="#667085">CorrelationId</text>
<text xml:space="preserve" text-anchor="start" x="525.62" y="-175.25" font-family="Comic Mono" font-size="13.00" fill="#667085">field names</text>
</g>
<!-- legend -->
<g id="node4" class="node">
<title>legend</title>
<polygon fill="#f2f4f7" stroke="none" points="225.25,0 225.25,-108.75 423.5,-108.75 423.5,0 225.25,0"/>
<text xml:space="preserve" text-anchor="start" x="250.88" y="-79" font-family="Architects Daughter" font-size="22.00" fill="#243042">Route meaning</text>
<text xml:space="preserve" text-anchor="start" x="233.25" y="-43.5" font-family="Comic Mono" font-size="13.00" fill="#667085">left edge: caller input</text>
<text xml:space="preserve" text-anchor="start" x="233.25" y="-12.5" font-family="Comic Mono" font-size="13.00" fill="#667085">right edge: returned output</text>
</g>
</g>
</svg>
