<?xml version="1.0" encoding="UTF-8" standalone="no"?>
<!DOCTYPE svg PUBLIC "-//W3C//DTD SVG 1.1//EN"
 "http://www.w3.org/Graphics/SVG/1.1/DTD/svg11.dtd">
<!-- Generated by graphviz version 15.0.0 (20260523.1842)
 -->
<!-- Title: G Pages: 1 -->
<svg width="839pt" height="631pt"
 viewBox="0.00 0.00 839.00 631.00" xmlns="http://www.w3.org/2000/svg" xmlns:xlink="http://www.w3.org/1999/xlink">
<g id="graph0" class="graph" transform="scale(1 1) rotate(0) translate(25.2 605.45)">
<title>G</title>
<polygon fill="#fbfcff" stroke="none" points="-25.2,25.2 -25.2,-605.45 813.45,-605.45 813.45,25.2 -25.2,25.2"/>
<text xml:space="preserve" text-anchor="start" x="230.25" y="-542.25" font-family="Architects Daughter" font-size="30.00" fill="#243042">bluetape&#45;rs Workspace</text>
<text xml:space="preserve" text-anchor="start" x="154.88" y="-509.5" font-family="Comic Mono" font-size="15.00" fill="#667085">Rust&#45;native backend primitives organized as focused crates</text>
<!-- facade&#45;&gt;core -->
<g id="edge1" class="edge">
<title>facade&#45;&gt;core</title>
<path fill="none" stroke="#9aa4b2" stroke-width="2.2" d="M301.28,-426C201.09,-426 65.38,-426 65.38,-426 65.38,-426 65.38,-313.77 65.38,-313.77"/>
<polygon fill="#9aa4b2" stroke="#9aa4b2" stroke-width="2.2" points="68.18,-313.77 65.38,-305.77 62.58,-313.77 68.18,-313.77"/>
</g>
<!-- facade&#45;&gt;logging -->
<g id="edge2" class="edge">
<title>facade&#45;&gt;logging</title>
<path fill="none" stroke="#9aa4b2" stroke-width="2.2" d="M317.56,-356.56C317.56,-301.17 317.56,-233 317.56,-233 317.56,-233 305.61,-233 305.61,-233"/>
<polygon fill="#9aa4b2" stroke="#9aa4b2" stroke-width="2.2" points="305.61,-230.2 297.61,-233 305.61,-235.8 305.61,-230.2"/>
</g>
<!-- facade&#45;&gt;test -->
<g id="edge3" class="edge">
<title>facade&#45;&gt;test</title>
<path fill="none" stroke="#9aa4b2" stroke-width="2.2" d="M406.38,-356.7C406.38,-356.7 406.38,-313.66 406.38,-313.66"/>
<polygon fill="#9aa4b2" stroke="#9aa4b2" stroke-width="2.2" points="409.18,-313.66 406.38,-305.66 403.58,-313.66 409.18,-313.66"/>
</g>
<!-- facade&#45;&gt;collections -->
<g id="edge4" class="edge">
<title>facade&#45;&gt;collections</title>
<path fill="none" stroke="#9aa4b2" stroke-width="2.2" d="M495.19,-356.56C495.19,-301.17 495.19,-233 495.19,-233 495.19,-233 507.41,-233 507.41,-233"/>
<polygon fill="#9aa4b2" stroke="#9aa4b2" stroke-width="2.2" points="507.41,-235.8 515.41,-233 507.41,-230.2 507.41,-235.8"/>
</g>
<!-- facade&#45;&gt;async -->
<g id="edge5" class="edge">
<title>facade&#45;&gt;async</title>
<path fill="none" stroke="#9aa4b2" stroke-width="2.2" d="M511.7,-426C608.27,-426 736.38,-426 736.38,-426 736.38,-426 736.38,-313.77 736.38,-313.77"/>
<polygon fill="#9aa4b2" stroke="#9aa4b2" stroke-width="2.2" points="739.18,-313.77 736.38,-305.77 733.58,-313.77 739.18,-313.77"/>
</g>
<!-- core&#45;&gt;deferred -->
<!-- logging&#45;&gt;deferred -->
<!-- test&#45;&gt;deferred -->
<!-- collections&#45;&gt;deferred -->
<!-- async&#45;&gt;deferred -->
<!-- facade -->
<g id="node1" class="node">
<title>facade</title>
<polygon fill="#e8f7f7" stroke="none" points="300.88,-356.5 300.88,-496.25 511.88,-496.25 511.88,-356.5 300.88,-356.5"/>
<text xml:space="preserve" text-anchor="start" x="308.88" y="-466.5" font-family="Architects Daughter" font-size="22.00" fill="#243042">bluetape&#45;rs facade</text>
<text xml:space="preserve" text-anchor="start" x="308.88" y="-431" font-family="Comic Mono" font-size="13.00" fill="#667085">default core feature</text>
<text xml:space="preserve" text-anchor="start" x="308.88" y="-400" font-family="Comic Mono" font-size="13.00" fill="#667085">opt&#45;in crate re&#45;exports</text>
<text xml:space="preserve" text-anchor="start" x="308.88" y="-369" font-family="Comic Mono" font-size="13.00" fill="#667085">edges mean feature exposure</text>
</g>
<!-- core -->
<g id="node2" class="node">
<title>core</title>
<polygon fill="#ddebff" stroke="none" points="0,-162.75 0,-302.5 130.75,-302.5 130.75,-162.75 0,-162.75"/>
<text xml:space="preserve" text-anchor="start" x="39.12" y="-272.75" font-family="Architects Daughter" font-size="22.00" fill="#243042">Core</text>
<text xml:space="preserve" text-anchor="start" x="8" y="-237.25" font-family="Comic Mono" font-size="13.00" fill="#667085">validation errors</text>
<text xml:space="preserve" text-anchor="start" x="8" y="-206.25" font-family="Comic Mono" font-size="13.00" fill="#667085">string helpers</text>
<text xml:space="preserve" text-anchor="start" x="8" y="-175.25" font-family="Comic Mono" font-size="13.00" fill="#667085">numeric checks</text>
</g>
<!-- logging -->
<g id="node3" class="node">
<title>logging</title>
<polygon fill="#dcf7ea" stroke="none" points="170.38,-162.75 170.38,-302.5 294.38,-302.5 294.38,-162.75 170.38,-162.75"/>
<text xml:space="preserve" text-anchor="start" x="194.5" y="-272.75" font-family="Architects Daughter" font-size="22.00" fill="#243042">Logging</text>
<text xml:space="preserve" text-anchor="start" x="178.38" y="-237.25" font-family="Comic Mono" font-size="13.00" fill="#667085">tracing builders</text>
<text xml:space="preserve" text-anchor="start" x="178.38" y="-206.25" font-family="Comic Mono" font-size="13.00" fill="#667085">correlation IDs</text>
<text xml:space="preserve" text-anchor="start" x="178.38" y="-175.25" font-family="Comic Mono" font-size="13.00" fill="#667085">test capture</text>
</g>
<!-- test -->
<g id="node4" class="node">
<title>test</title>
<polygon fill="#fff0c9" stroke="none" points="334.25,-162.75 334.25,-302.5 478.5,-302.5 478.5,-162.75 334.25,-162.75"/>
<text xml:space="preserve" text-anchor="start" x="383.5" y="-272.75" font-family="Architects Daughter" font-size="22.00" fill="#243042">Test</text>
<text xml:space="preserve" text-anchor="start" x="342.25" y="-237.25" font-family="Comic Mono" font-size="13.00" fill="#667085">async assertions</text>
<text xml:space="preserve" text-anchor="start" x="342.25" y="-206.25" font-family="Comic Mono" font-size="13.00" fill="#667085">concurrency testers</text>
<text xml:space="preserve" text-anchor="start" x="342.25" y="-175.25" font-family="Comic Mono" font-size="13.00" fill="#667085">temp resources</text>
</g>
<!-- collections -->
<g id="node5" class="node">
<title>collections</title>
<polygon fill="#e8e0ff" stroke="none" points="518.62,-162.75 518.62,-302.5 644.12,-302.5 644.12,-162.75 518.62,-162.75"/>
<text xml:space="preserve" text-anchor="start" x="526.62" y="-272.75" font-family="Architects Daughter" font-size="22.00" fill="#243042">Collections</text>
<text xml:space="preserve" text-anchor="start" x="526.62" y="-237.25" font-family="Comic Mono" font-size="13.00" fill="#667085">iterator helpers</text>
<text xml:space="preserve" text-anchor="start" x="526.62" y="-206.25" font-family="Comic Mono" font-size="13.00" fill="#667085">map transforms</text>
<text xml:space="preserve" text-anchor="start" x="526.62" y="-175.25" font-family="Comic Mono" font-size="13.00" fill="#667085">page values</text>
</g>
<!-- async -->
<g id="node6" class="node">
<title>async</title>
<polygon fill="#ffe1df" stroke="none" points="684.5,-162.75 684.5,-302.5 788.25,-302.5 788.25,-162.75 684.5,-162.75"/>
<text xml:space="preserve" text-anchor="start" x="704.88" y="-272.75" font-family="Architects Daughter" font-size="22.00" fill="#243042">Async</text>
<text xml:space="preserve" text-anchor="start" x="692.5" y="-237.25" font-family="Comic Mono" font-size="13.00" fill="#667085">bounded tasks</text>
<text xml:space="preserve" text-anchor="start" x="692.5" y="-206.25" font-family="Comic Mono" font-size="13.00" fill="#667085">timeouts</text>
<text xml:space="preserve" text-anchor="start" x="692.5" y="-175.25" font-family="Comic Mono" font-size="13.00" fill="#667085">shutdown</text>
</g>
<!-- deferred -->
<g id="node7" class="node">
<title>deferred</title>
<polygon fill="#f2f4f7" stroke="none" points="182.38,0 182.38,-108.75 630.38,-108.75 630.38,0 182.38,0"/>
<text xml:space="preserve" text-anchor="start" x="268.38" y="-79" font-family="Architects Daughter" font-size="22.00" fill="#243042">Deferred package families</text>
<text xml:space="preserve" text-anchor="start" x="190.38" y="-43.5" font-family="Comic Mono" font-size="13.00" fill="#667085">codec, compression, serde, testcontainers</text>
<text xml:space="preserve" text-anchor="start" x="190.38" y="-12.5" font-family="Comic Mono" font-size="13.00" fill="#667085">SQL, SQLx, resilience, leader, AWS, audit, graph, text, workshop</text>
</g>
</g>
</svg>
