<?xml version="1.0" encoding="UTF-8" standalone="no"?>
<!DOCTYPE svg PUBLIC "-//W3C//DTD SVG 1.1//EN"
 "http://www.w3.org/Graphics/SVG/1.1/DTD/svg11.dtd">
<!-- Generated by graphviz version 15.0.0 (20260523.1842)
 -->
<!-- Title: G Pages: 1 -->
<svg width="664pt" height="468pt"
 viewBox="0.00 0.00 664.00 468.00" xmlns="http://www.w3.org/2000/svg" xmlns:xlink="http://www.w3.org/1999/xlink">
<g id="graph0" class="graph" transform="scale(1 1) rotate(0) translate(25.2 442.7)">
<title>G</title>
<polygon fill="#fbfcff" stroke="none" points="-25.2,25.2 -25.2,-442.7 638.95,-442.7 638.95,25.2 -25.2,25.2"/>
<text xml:space="preserve" text-anchor="start" x="191.38" y="-379.5" font-family="Architects Daughter" font-size="30.00" fill="#243042">bluetape&#45;rs&#45;core</text>
<text xml:space="preserve" text-anchor="start" x="100.62" y="-346.75" font-family="Comic Mono" font-size="15.00" fill="#667085">Small validation, string, numeric, and hex helpers</text>
<!-- input&#45;&gt;crate -->
<g id="edge1" class="edge">
<title>input&#45;&gt;crate</title>
<path fill="none" stroke="#9aa4b2" stroke-width="2.2" d="M137.32,-248C137.32,-248 166.4,-248 166.4,-248"/>
<polygon fill="#9aa4b2" stroke="#9aa4b2" stroke-width="2.2" points="166.4,-250.8 174.4,-248 166.4,-245.2 166.4,-250.8"/>
</g>
<!-- crate&#45;&gt;output -->
<g id="edge2" class="edge">
<title>crate&#45;&gt;output</title>
<path fill="none" stroke="#9aa4b2" stroke-width="2.2" d="M449.78,-248C449.78,-248 478.56,-248 478.56,-248"/>
<polygon fill="#9aa4b2" stroke="#9aa4b2" stroke-width="2.2" points="478.56,-250.8 486.56,-248 478.56,-245.2 478.56,-250.8"/>
</g>
<!-- crate&#45;&gt;legend -->
<!-- input -->
<g id="node1" class="node">
<title>input</title>
<polygon fill="#ffffff" stroke="none" points="0,-162.75 0,-333.5 137.5,-333.5 137.5,-162.75 0,-162.75"/>
<text xml:space="preserve" text-anchor="start" x="39.88" y="-303.75" font-family="Architects Daughter" font-size="22.00" fill="#243042">Inputs</text>
<text xml:space="preserve" text-anchor="start" x="8" y="-268.25" font-family="Comic Mono" font-size="13.00" fill="#667085">caller field names</text>
<text xml:space="preserve" text-anchor="start" x="8" y="-237.25" font-family="Comic Mono" font-size="13.00" fill="#667085">strings</text>
<text xml:space="preserve" text-anchor="start" x="8" y="-206.25" font-family="Comic Mono" font-size="13.00" fill="#667085">numbers</text>
<text xml:space="preserve" text-anchor="start" x="8" y="-175.25" font-family="Comic Mono" font-size="13.00" fill="#667085">hex text</text>
</g>
<!-- crate -->
<g id="node2" class="node">
<title>crate</title>
<polygon fill="#ddebff" stroke="none" points="177.5,-178.25 177.5,-318 450,-318 450,-178.25 177.5,-178.25"/>
<text xml:space="preserve" text-anchor="start" x="228.25" y="-288.25" font-family="Architects Daughter" font-size="22.00" fill="#243042">bluetape&#45;rs&#45;core</text>
<text xml:space="preserve" text-anchor="start" x="185.5" y="-252.75" font-family="Comic Mono" font-size="13.00" fill="#667085">typed validation errors</text>
<text xml:space="preserve" text-anchor="start" x="185.5" y="-221.75" font-family="Comic Mono" font-size="13.00" fill="#667085">Result&#45;first helper contracts</text>
<text xml:space="preserve" text-anchor="start" x="185.5" y="-190.75" font-family="Comic Mono" font-size="13.00" fill="#667085">modules: error | string | number | hex</text>
</g>
<!-- output -->
<g id="node3" class="node">
<title>output</title>
<polygon fill="#ffffff" stroke="none" points="489.75,-162.75 489.75,-333.5 613.75,-333.5 613.75,-162.75 489.75,-162.75"/>
<text xml:space="preserve" text-anchor="start" x="512.38" y="-303.75" font-family="Architects Daughter" font-size="22.00" fill="#243042">Outputs</text>
<text xml:space="preserve" text-anchor="start" x="497.75" y="-268.25" font-family="Comic Mono" font-size="13.00" fill="#667085">validated values</text>
<text xml:space="preserve" text-anchor="start" x="497.75" y="-237.25" font-family="Comic Mono" font-size="13.00" fill="#667085">ValidationError</text>
<text xml:space="preserve" text-anchor="start" x="497.75" y="-206.25" font-family="Comic Mono" font-size="13.00" fill="#667085">safe fallbacks</text>
<text xml:space="preserve" text-anchor="start" x="497.75" y="-175.25" font-family="Comic Mono" font-size="13.00" fill="#667085">UTF&#45;8 truncation</text>
</g>
<!-- legend -->
<g id="node4" class="node">
<title>legend</title>
<polygon fill="#f2f4f7" stroke="none" points="214.62,0 214.62,-108.75 412.88,-108.75 412.88,0 214.62,0"/>
<text xml:space="preserve" text-anchor="start" x="240.25" y="-79" font-family="Architects Daughter" font-size="22.00" fill="#243042">Route meaning</text>
<text xml:space="preserve" text-anchor="start" x="222.62" y="-43.5" font-family="Comic Mono" font-size="13.00" fill="#667085">left edge: caller input</text>
<text xml:space="preserve" text-anchor="start" x="222.62" y="-12.5" font-family="Comic Mono" font-size="13.00" fill="#667085">right edge: returned output</text>
</g>
</g>
</svg>
