<?xml version="1.0" encoding="UTF-8" standalone="no"?>
<!DOCTYPE svg PUBLIC "-//W3C//DTD SVG 1.1//EN"
 "http://www.w3.org/Graphics/SVG/1.1/DTD/svg11.dtd">
<!-- Generated by graphviz version 15.0.0 (20260523.1842)
 -->
<!-- Title: G Pages: 1 -->
<svg width="617pt" height="468pt"
 viewBox="0.00 0.00 617.00 468.00" xmlns="http://www.w3.org/2000/svg" xmlns:xlink="http://www.w3.org/1999/xlink">
<g id="graph0" class="graph" transform="scale(1 1) rotate(0) translate(25.2 442.7)">
<title>G</title>
<polygon fill="#fbfcff" stroke="none" points="-25.2,25.2 -25.2,-442.7 591.58,-442.7 591.58,25.2 -25.2,25.2"/>
<text xml:space="preserve" text-anchor="start" x="162.06" y="-379.5" font-family="Architects Daughter" font-size="30.00" fill="#243042">bluetape&#45;rs&#45;async</text>
<text xml:space="preserve" text-anchor="start" x="101.69" y="-346.75" font-family="Comic Mono" font-size="15.00" fill="#667085">Tokio&#45;first bounded task and control helpers</text>
<!-- input&#45;&gt;crate -->
<g id="edge1" class="edge">
<title>input&#45;&gt;crate</title>
<path fill="none" stroke="#9aa4b2" stroke-width="2.2" d="M130.49,-248C130.49,-248 159.41,-248 159.41,-248"/>
<polygon fill="#9aa4b2" stroke="#9aa4b2" stroke-width="2.2" points="159.41,-250.8 167.41,-248 159.41,-245.2 159.41,-250.8"/>
</g>
<!-- crate&#45;&gt;output -->
<g id="edge2" class="edge">
<title>crate&#45;&gt;output</title>
<path fill="none" stroke="#9aa4b2" stroke-width="2.2" d="M402.08,-248C402.08,-248 431.27,-248 431.27,-248"/>
<polygon fill="#9aa4b2" stroke="#9aa4b2" stroke-width="2.2" points="431.27,-250.8 439.27,-248 431.27,-245.2 431.27,-250.8"/>
</g>
<!-- crate&#45;&gt;legend -->
<!-- input -->
<g id="node1" class="node">
<title>input</title>
<polygon fill="#ffffff" stroke="none" points="0,-162.75 0,-333.5 130.75,-333.5 130.75,-162.75 0,-162.75"/>
<text xml:space="preserve" text-anchor="start" x="36.5" y="-303.75" font-family="Architects Daughter" font-size="22.00" fill="#243042">Inputs</text>
<text xml:space="preserve" text-anchor="start" x="8" y="-268.25" font-family="Comic Mono" font-size="13.00" fill="#667085">items</text>
<text xml:space="preserve" text-anchor="start" x="8" y="-237.25" font-family="Comic Mono" font-size="13.00" fill="#667085">async operation</text>
<text xml:space="preserve" text-anchor="start" x="8" y="-206.25" font-family="Comic Mono" font-size="13.00" fill="#667085">max concurrency</text>
<text xml:space="preserve" text-anchor="start" x="8" y="-175.25" font-family="Comic Mono" font-size="13.00" fill="#667085">deadline or token</text>
</g>
<!-- crate -->
<g id="node2" class="node">
<title>crate</title>
<polygon fill="#ffe1df" stroke="none" points="170.38,-178.25 170.38,-318 402.38,-318 402.38,-178.25 170.38,-178.25"/>
<text xml:space="preserve" text-anchor="start" x="196.38" y="-288.25" font-family="Architects Daughter" font-size="22.00" fill="#243042">bluetape&#45;rs&#45;async</text>
<text xml:space="preserve" text-anchor="start" x="178.38" y="-252.75" font-family="Comic Mono" font-size="13.00" fill="#667085">task group policy</text>
<text xml:space="preserve" text-anchor="start" x="178.38" y="-221.75" font-family="Comic Mono" font-size="13.00" fill="#667085">cancellation and timeout control</text>
<text xml:space="preserve" text-anchor="start" x="178.38" y="-190.75" font-family="Comic Mono" font-size="13.00" fill="#667085">modules: task_group | control</text>
</g>
<!-- output -->
<g id="node3" class="node">
<title>output</title>
<polygon fill="#ffffff" stroke="none" points="442.38,-162.75 442.38,-333.5 566.38,-333.5 566.38,-162.75 442.38,-162.75"/>
<text xml:space="preserve" text-anchor="start" x="465" y="-303.75" font-family="Architects Daughter" font-size="22.00" fill="#243042">Outputs</text>
<text xml:space="preserve" text-anchor="start" x="450.38" y="-268.25" font-family="Comic Mono" font-size="13.00" fill="#667085">ordered results</text>
<text xml:space="preserve" text-anchor="start" x="450.38" y="-237.25" font-family="Comic Mono" font-size="13.00" fill="#667085">TaskGroupReport</text>
<text xml:space="preserve" text-anchor="start" x="450.38" y="-206.25" font-family="Comic Mono" font-size="13.00" fill="#667085">typed errors</text>
<text xml:space="preserve" text-anchor="start" x="450.38" y="-175.25" font-family="Comic Mono" font-size="13.00" fill="#667085">shutdown signals</text>
</g>
<!-- legend -->
<g id="node4" class="node">
<title>legend</title>
<polygon fill="#f2f4f7" stroke="none" points="187.25,0 187.25,-108.75 385.5,-108.75 385.5,0 187.25,0"/>
<text xml:space="preserve" text-anchor="start" x="212.88" y="-79" font-family="Architects Daughter" font-size="22.00" fill="#243042">Route meaning</text>
<text xml:space="preserve" text-anchor="start" x="195.25" y="-43.5" font-family="Comic Mono" font-size="13.00" fill="#667085">left edge: caller input</text>
<text xml:space="preserve" text-anchor="start" x="195.25" y="-12.5" font-family="Comic Mono" font-size="13.00" fill="#667085">right edge: returned output</text>
</g>
</g>
</svg>
