<?xml version="1.0" encoding="UTF-8" standalone="no"?>
<!DOCTYPE svg PUBLIC "-//W3C//DTD SVG 1.1//EN"
 "http://www.w3.org/Graphics/SVG/1.1/DTD/svg11.dtd">
<!-- Generated by graphviz version 15.0.0 (20260523.1842)
 -->
<!-- Title: G Pages: 1 -->
<svg width="678pt" height="468pt"
 viewBox="0.00 0.00 678.00 468.00" xmlns="http://www.w3.org/2000/svg" xmlns:xlink="http://www.w3.org/1999/xlink">
<g id="graph0" class="graph" transform="scale(1 1) rotate(0) translate(25.2 442.7)">
<title>G</title>
<polygon fill="#fbfcff" stroke="none" points="-25.2,25.2 -25.2,-442.7 653.2,-442.7 653.2,25.2 -25.2,25.2"/>
<text xml:space="preserve" text-anchor="start" x="161" y="-379.5" font-family="Architects Daughter" font-size="30.00" fill="#243042">bluetape&#45;rs&#45;collections</text>
<text xml:space="preserve" text-anchor="start" x="124.25" y="-346.75" font-family="Comic Mono" font-size="15.00" fill="#667085">Focused iterator, slice, map, and page helpers</text>
<!-- input&#45;&gt;crate -->
<g id="edge1" class="edge">
<title>input&#45;&gt;crate</title>
<path fill="none" stroke="#9aa4b2" stroke-width="2.2" d="M137.48,-248C137.48,-248 166.72,-248 166.72,-248"/>
<polygon fill="#9aa4b2" stroke="#9aa4b2" stroke-width="2.2" points="166.72,-250.8 174.72,-248 166.72,-245.2 166.72,-250.8"/>
</g>
<!-- crate&#45;&gt;output -->
<g id="edge2" class="edge">
<title>crate&#45;&gt;output</title>
<path fill="none" stroke="#9aa4b2" stroke-width="2.2" d="M477.33,-248C477.33,-248 506.37,-248 506.37,-248"/>
<polygon fill="#9aa4b2" stroke="#9aa4b2" stroke-width="2.2" points="506.37,-250.8 514.37,-248 506.37,-245.2 506.37,-250.8"/>
</g>
<!-- crate&#45;&gt;legend -->
<!-- input -->
<g id="node1" class="node">
<title>input</title>
<polygon fill="#ffffff" stroke="none" points="0,-162.75 0,-333.5 137.5,-333.5 137.5,-162.75 0,-162.75"/>
<text xml:space="preserve" text-anchor="start" x="39.88" y="-303.75" font-family="Architects Daughter" font-size="22.00" fill="#243042">Inputs</text>
<text xml:space="preserve" text-anchor="start" x="8" y="-268.25" font-family="Comic Mono" font-size="13.00" fill="#667085">iterators</text>
<text xml:space="preserve" text-anchor="start" x="8" y="-237.25" font-family="Comic Mono" font-size="13.00" fill="#667085">slices</text>
<text xml:space="preserve" text-anchor="start" x="8" y="-206.25" font-family="Comic Mono" font-size="13.00" fill="#667085">HashMap values</text>
<text xml:space="preserve" text-anchor="start" x="8" y="-175.25" font-family="Comic Mono" font-size="13.00" fill="#667085">materialized pages</text>
</g>
<!-- crate -->
<g id="node2" class="node">
<title>crate</title>
<polygon fill="#e8e0ff" stroke="none" points="178,-178.25 178,-318 477.5,-318 477.5,-178.25 178,-178.25"/>
<text xml:space="preserve" text-anchor="start" x="213.75" y="-288.25" font-family="Architects Daughter" font-size="22.00" fill="#243042">bluetape&#45;rs&#45;collections</text>
<text xml:space="preserve" text-anchor="start" x="186" y="-252.75" font-family="Comic Mono" font-size="13.00" fill="#667085">named collection patterns</text>
<text xml:space="preserve" text-anchor="start" x="186" y="-221.75" font-family="Comic Mono" font-size="13.00" fill="#667085">typed collection errors</text>
<text xml:space="preserve" text-anchor="start" x="186" y="-190.75" font-family="Comic Mono" font-size="13.00" fill="#667085">modules: iter | slice | map | page | error</text>
</g>
<!-- output -->
<g id="node3" class="node">
<title>output</title>
<polygon fill="#ffffff" stroke="none" points="517.5,-162.75 517.5,-333.5 628,-333.5 628,-162.75 517.5,-162.75"/>
<text xml:space="preserve" text-anchor="start" x="533.38" y="-303.75" font-family="Architects Daughter" font-size="22.00" fill="#243042">Outputs</text>
<text xml:space="preserve" text-anchor="start" x="525.5" y="-268.25" font-family="Comic Mono" font-size="13.00" fill="#667085">chunks/windows</text>
<text xml:space="preserve" text-anchor="start" x="525.5" y="-237.25" font-family="Comic Mono" font-size="13.00" fill="#667085">grouped values</text>
<text xml:space="preserve" text-anchor="start" x="525.5" y="-206.25" font-family="Comic Mono" font-size="13.00" fill="#667085">mapped HashMap</text>
<text xml:space="preserve" text-anchor="start" x="525.5" y="-175.25" font-family="Comic Mono" font-size="13.00" fill="#667085">Page metadata</text>
</g>
<!-- legend -->
<g id="node4" class="node">
<title>legend</title>
<polygon fill="#f2f4f7" stroke="none" points="228.62,0 228.62,-108.75 426.88,-108.75 426.88,0 228.62,0"/>
<text xml:space="preserve" text-anchor="start" x="254.25" y="-79" font-family="Architects Daughter" font-size="22.00" fill="#243042">Route meaning</text>
<text xml:space="preserve" text-anchor="start" x="236.62" y="-43.5" font-family="Comic Mono" font-size="13.00" fill="#667085">left edge: caller input</text>
<text xml:space="preserve" text-anchor="start" x="236.62" y="-12.5" font-family="Comic Mono" font-size="13.00" fill="#667085">right edge: returned output</text>
</g>
</g>
</svg>
