<svg xmlns="http://www.w3.org/2000/svg" width="1900" height="1360" viewBox="0 0 1900 1360">
<defs>
<style><![CDATA[.title,.panel-title{font-family:'Architects Daughter','Comic Sans MS',cursive;fill:#243447;}.detail,.axis,.legend,.value,.muted{font-family:'Comic Mono','SFMono-Regular',monospace;fill:#243447;}.muted{fill:#64748b;}]]></style>
<filter id="shadow" x="-10%" y="-10%" width="120%" height="130%"><feDropShadow dx="0" dy="8" stdDeviation="10" flood-color="#8aa0b6" flood-opacity="0.16"/></filter>
</defs>
<rect width="1900" height="1360" fill="#eef6fb"/>
<rect x="29.0" y="29.0" width="1842" height="1302" rx="34" fill="#fff" stroke="#c7d7e6" stroke-width="2" filter="url(#shadow)"/>
<text x="950.0" y="72.0" class="title" text-anchor="middle" font-size="38">Same-condition Compression Ratio</text>
<text x="950.0" y="110.0" class="muted" text-anchor="middle" font-size="19">Large payloads, lower is better, log scale</text>
<rect x="552.0" y="132.0" width="232.0" height="38.0" rx="13" fill="#f8fbff" stroke="#cbddeb" stroke-width="1.2"/>
<rect x="572" y="145" width="26" height="12" rx="6" fill="#d99a5b"/>
<text x="608.0" y="156.0" class="legend" text-anchor="start" font-size="15">bluetape-rs</text>
<rect x="812.0" y="132.0" width="232.0" height="38.0" rx="13" fill="#f8fbff" stroke="#cbddeb" stroke-width="1.2"/>
<rect x="832" y="145" width="26" height="12" rx="6" fill="#6aaed6"/>
<text x="868.0" y="156.0" class="legend" text-anchor="start" font-size="15">bluetape-go</text>
<rect x="1072.0" y="132.0" width="232.0" height="38.0" rx="13" fill="#f8fbff" stroke="#cbddeb" stroke-width="1.2"/>
<rect x="1092" y="145" width="26" height="12" rx="6" fill="#94c973"/>
<text x="1128.0" y="156.0" class="legend" text-anchor="start" font-size="15">bluetape4k-io</text>
<rect x="58.0" y="188.0" width="879.0" height="502.0" rx="24" fill="#e8f3ff" stroke="#c9d7e4" stroke-width="1.2"/>
<text x="86.0" y="232.0" class="panel-title" text-anchor="start" font-size="29">JSON</text>
<text x="907.0" y="230.0" class="muted" text-anchor="end" font-size="16">ratio</text>
<line x1="174.0" y1="274.0" x2="174.0" y2="636.0" stroke="#d7e3ee" stroke-width="1"/>
<text x="174.0" y="660.0" class="axis" text-anchor="middle" font-size="12">0.0002</text>
<line x1="307.0" y1="274.0" x2="307.0" y2="636.0" stroke="#d7e3ee" stroke-width="1"/>
<text x="307.0" y="660.0" class="axis" text-anchor="middle" font-size="12">0.001</text>
<line x1="497.3" y1="274.0" x2="497.3" y2="636.0" stroke="#d7e3ee" stroke-width="1"/>
<text x="497.3" y="660.0" class="axis" text-anchor="middle" font-size="12">0.01</text>
<line x1="687.6" y1="274.0" x2="687.6" y2="636.0" stroke="#d7e3ee" stroke-width="1"/>
<text x="687.6" y="660.0" class="axis" text-anchor="middle" font-size="12">0.1</text>
<line x1="877.9" y1="274.0" x2="877.9" y2="636.0" stroke="#d7e3ee" stroke-width="1"/>
<text x="877.9" y="660.0" class="axis" text-anchor="middle" font-size="12">1</text>
<line x1="174.0" y1="636.0" x2="893.0" y2="636.0" stroke="#6b7280" stroke-width="1.2"/>
<text x="86.0" y="313.0" class="detail" text-anchor="start" font-size="16">gzip</text>
<rect x="174.0" y="296.0" width="509.8" height="9" rx="5" fill="#d99a5b"/>
<text x="690.8" y="304.0" class="value" text-anchor="start" font-size="11">0.0955</text>
<rect x="174.0" y="310.0" width="510.8" height="9" rx="5" fill="#6aaed6"/>
<text x="691.8" y="318.0" class="value" text-anchor="start" font-size="11">0.0966</text>
<rect x="174.0" y="324.0" width="511.6" height="9" rx="5" fill="#94c973"/>
<text x="692.6" y="332.0" class="value" text-anchor="start" font-size="11">0.0976</text>
<text x="86.0" y="355.0" class="detail" text-anchor="start" font-size="16">deflate</text>
<rect x="174.0" y="338.0" width="509.8" height="9" rx="5" fill="#d99a5b"/>
<text x="690.8" y="346.0" class="value" text-anchor="start" font-size="11">0.0954</text>
<rect x="174.0" y="352.0" width="510.7" height="9" rx="5" fill="#6aaed6"/>
<text x="691.7" y="360.0" class="value" text-anchor="start" font-size="11">0.0966</text>
<rect x="174.0" y="366.0" width="511.6" height="9" rx="5" fill="#94c973"/>
<text x="692.6" y="374.0" class="value" text-anchor="start" font-size="11">0.0976</text>
<text x="86.0" y="397.0" class="detail" text-anchor="start" font-size="16">lz4</text>
<rect x="174.0" y="380.0" width="556.6" height="9" rx="5" fill="#d99a5b"/>
<text x="737.6" y="388.0" class="value" text-anchor="start" font-size="11">0.1683</text>
<rect x="174.0" y="394.0" width="555.0" height="9" rx="5" fill="#6aaed6"/>
<text x="736.0" y="402.0" class="value" text-anchor="start" font-size="11">0.1649</text>
<rect x="174.0" y="408.0" width="556.6" height="9" rx="5" fill="#94c973"/>
<text x="737.6" y="416.0" class="value" text-anchor="start" font-size="11">0.1683</text>
<text x="86.0" y="439.0" class="detail" text-anchor="start" font-size="16">snappy</text>
<rect x="174.0" y="422.0" width="560.3" height="9" rx="5" fill="#d99a5b"/>
<text x="741.3" y="430.0" class="value" text-anchor="start" font-size="11">0.1759</text>
<rect x="174.0" y="436.0" width="560.4" height="9" rx="5" fill="#6aaed6"/>
<text x="741.4" y="444.0" class="value" text-anchor="start" font-size="11">0.1761</text>
<rect x="174.0" y="450.0" width="560.5" height="9" rx="5" fill="#94c973"/>
<text x="741.5" y="458.0" class="value" text-anchor="start" font-size="11">0.1763</text>
<text x="86.0" y="481.0" class="detail" text-anchor="start" font-size="16">zstd</text>
<rect x="174.0" y="464.0" width="430.1" height="9" rx="5" fill="#d99a5b"/>
<text x="611.1" y="472.0" class="value" text-anchor="start" font-size="11">0.0364</text>
<rect x="174.0" y="478.0" width="435.7" height="9" rx="5" fill="#6aaed6"/>
<text x="616.7" y="486.0" class="value" text-anchor="start" font-size="11">0.0390</text>
<rect x="174.0" y="492.0" width="430.1" height="9" rx="5" fill="#94c973"/>
<text x="611.1" y="500.0" class="value" text-anchor="start" font-size="11">0.0364</text>
<rect x="963.0" y="188.0" width="879.0" height="502.0" rx="24" fill="#eaf8ef" stroke="#c9d7e4" stroke-width="1.2"/>
<text x="991.0" y="232.0" class="panel-title" text-anchor="start" font-size="29">TEXT</text>
<text x="1812.0" y="230.0" class="muted" text-anchor="end" font-size="16">ratio</text>
<line x1="1079.0" y1="274.0" x2="1079.0" y2="636.0" stroke="#d7e3ee" stroke-width="1"/>
<text x="1079.0" y="660.0" class="axis" text-anchor="middle" font-size="12">0.0002</text>
<line x1="1212.0" y1="274.0" x2="1212.0" y2="636.0" stroke="#d7e3ee" stroke-width="1"/>
<text x="1212.0" y="660.0" class="axis" text-anchor="middle" font-size="12">0.001</text>
<line x1="1402.3" y1="274.0" x2="1402.3" y2="636.0" stroke="#d7e3ee" stroke-width="1"/>
<text x="1402.3" y="660.0" class="axis" text-anchor="middle" font-size="12">0.01</text>
<line x1="1592.6" y1="274.0" x2="1592.6" y2="636.0" stroke="#d7e3ee" stroke-width="1"/>
<text x="1592.6" y="660.0" class="axis" text-anchor="middle" font-size="12">0.1</text>
<line x1="1782.9" y1="274.0" x2="1782.9" y2="636.0" stroke="#d7e3ee" stroke-width="1"/>
<text x="1782.9" y="660.0" class="axis" text-anchor="middle" font-size="12">1</text>
<line x1="1079.0" y1="636.0" x2="1798.0" y2="636.0" stroke="#6b7280" stroke-width="1.2"/>
<text x="991.0" y="313.0" class="detail" text-anchor="start" font-size="16">gzip</text>
<rect x="1079.0" y="296.0" width="238.8" height="9" rx="5" fill="#d99a5b"/>
<text x="1324.8" y="304.0" class="value" text-anchor="start" font-size="11">0.0036</text>
<rect x="1079.0" y="310.0" width="239.0" height="9" rx="5" fill="#6aaed6"/>
<text x="1325.0" y="318.0" class="value" text-anchor="start" font-size="11">0.0036</text>
<rect x="1079.0" y="324.0" width="238.8" height="9" rx="5" fill="#94c973"/>
<text x="1324.8" y="332.0" class="value" text-anchor="start" font-size="11">0.0036</text>
<text x="991.0" y="355.0" class="detail" text-anchor="start" font-size="16">deflate</text>
<rect x="1079.0" y="338.0" width="238.0" height="9" rx="5" fill="#d99a5b"/>
<text x="1324.0" y="346.0" class="value" text-anchor="start" font-size="11">0.0036</text>
<rect x="1079.0" y="352.0" width="238.2" height="9" rx="5" fill="#6aaed6"/>
<text x="1324.2" y="360.0" class="value" text-anchor="start" font-size="11">0.0036</text>
<rect x="1079.0" y="366.0" width="238.3" height="9" rx="5" fill="#94c973"/>
<text x="1324.3" y="374.0" class="value" text-anchor="start" font-size="11">0.0036</text>
<text x="991.0" y="397.0" class="detail" text-anchor="start" font-size="16">lz4</text>
<rect x="1079.0" y="380.0" width="249.9" height="9" rx="5" fill="#d99a5b"/>
<text x="1335.9" y="388.0" class="value" text-anchor="start" font-size="11">0.0041</text>
<rect x="1079.0" y="394.0" width="251.1" height="9" rx="5" fill="#6aaed6"/>
<text x="1337.1" y="402.0" class="value" text-anchor="start" font-size="11">0.0042</text>
<rect x="1079.0" y="408.0" width="249.9" height="9" rx="5" fill="#94c973"/>
<text x="1335.9" y="416.0" class="value" text-anchor="start" font-size="11">0.0041</text>
<text x="991.0" y="439.0" class="detail" text-anchor="start" font-size="16">snappy</text>
<rect x="1079.0" y="422.0" width="453.3" height="9" rx="5" fill="#d99a5b"/>
<text x="1539.3" y="430.0" class="value" text-anchor="start" font-size="11">0.0482</text>
<rect x="1079.0" y="436.0" width="453.6" height="9" rx="5" fill="#6aaed6"/>
<text x="1539.6" y="444.0" class="value" text-anchor="start" font-size="11">0.0484</text>
<rect x="1079.0" y="450.0" width="453.3" height="9" rx="5" fill="#94c973"/>
<text x="1539.3" y="458.0" class="value" text-anchor="start" font-size="11">0.0482</text>
<text x="991.0" y="481.0" class="detail" text-anchor="start" font-size="16">zstd</text>
<rect x="1079.0" y="464.0" width="14.4" height="9" rx="5" fill="#d99a5b"/>
<text x="1100.4" y="472.0" class="value" text-anchor="start" font-size="11">0.0002</text>
<rect x="1079.0" y="478.0" width="21.5" height="9" rx="5" fill="#6aaed6"/>
<text x="1107.5" y="486.0" class="value" text-anchor="start" font-size="11">0.0003</text>
<rect x="1079.0" y="492.0" width="17.1" height="9" rx="5" fill="#94c973"/>
<text x="1103.1" y="500.0" class="value" text-anchor="start" font-size="11">0.0002</text>
<rect x="58.0" y="716.0" width="879.0" height="502.0" rx="24" fill="#fff3dd" stroke="#c9d7e4" stroke-width="1.2"/>
<text x="86.0" y="760.0" class="panel-title" text-anchor="start" font-size="29">BINARY</text>
<text x="907.0" y="758.0" class="muted" text-anchor="end" font-size="16">ratio</text>
<line x1="174.0" y1="802.0" x2="174.0" y2="1164.0" stroke="#d7e3ee" stroke-width="1"/>
<text x="174.0" y="1188.0" class="axis" text-anchor="middle" font-size="12">0.0002</text>
<line x1="307.0" y1="802.0" x2="307.0" y2="1164.0" stroke="#d7e3ee" stroke-width="1"/>
<text x="307.0" y="1188.0" class="axis" text-anchor="middle" font-size="12">0.001</text>
<line x1="497.3" y1="802.0" x2="497.3" y2="1164.0" stroke="#d7e3ee" stroke-width="1"/>
<text x="497.3" y="1188.0" class="axis" text-anchor="middle" font-size="12">0.01</text>
<line x1="687.6" y1="802.0" x2="687.6" y2="1164.0" stroke="#d7e3ee" stroke-width="1"/>
<text x="687.6" y="1188.0" class="axis" text-anchor="middle" font-size="12">0.1</text>
<line x1="877.9" y1="802.0" x2="877.9" y2="1164.0" stroke="#d7e3ee" stroke-width="1"/>
<text x="877.9" y="1188.0" class="axis" text-anchor="middle" font-size="12">1</text>
<line x1="174.0" y1="1164.0" x2="893.0" y2="1164.0" stroke="#6b7280" stroke-width="1.2"/>
<text x="86.0" y="841.0" class="detail" text-anchor="start" font-size="16">gzip</text>
<rect x="174.0" y="824.0" width="297.4" height="9" rx="5" fill="#d99a5b"/>
<text x="478.4" y="832.0" class="value" text-anchor="start" font-size="11">0.0073</text>
<rect x="174.0" y="838.0" width="298.2" height="9" rx="5" fill="#6aaed6"/>
<text x="479.2" y="846.0" class="value" text-anchor="start" font-size="11">0.0074</text>
<rect x="174.0" y="852.0" width="297.6" height="9" rx="5" fill="#94c973"/>
<text x="478.6" y="860.0" class="value" text-anchor="start" font-size="11">0.0073</text>
<text x="86.0" y="883.0" class="detail" text-anchor="start" font-size="16">deflate</text>
<rect x="174.0" y="866.0" width="297.0" height="9" rx="5" fill="#d99a5b"/>
<text x="478.0" y="874.0" class="value" text-anchor="start" font-size="11">0.0073</text>
<rect x="174.0" y="880.0" width="297.8" height="9" rx="5" fill="#6aaed6"/>
<text x="478.8" y="888.0" class="value" text-anchor="start" font-size="11">0.0073</text>
<rect x="174.0" y="894.0" width="297.3" height="9" rx="5" fill="#94c973"/>
<text x="478.3" y="902.0" class="value" text-anchor="start" font-size="11">0.0073</text>
<text x="86.0" y="925.0" class="detail" text-anchor="start" font-size="16">lz4</text>
<rect x="174.0" y="908.0" width="288.7" height="9" rx="5" fill="#d99a5b"/>
<text x="469.7" y="916.0" class="value" text-anchor="start" font-size="11">0.0066</text>
<rect x="174.0" y="922.0" width="288.6" height="9" rx="5" fill="#6aaed6"/>
<text x="469.6" y="930.0" class="value" text-anchor="start" font-size="11">0.0066</text>
<rect x="174.0" y="936.0" width="287.8" height="9" rx="5" fill="#94c973"/>
<text x="468.8" y="944.0" class="value" text-anchor="start" font-size="11">0.0065</text>
<text x="86.0" y="967.0" class="detail" text-anchor="start" font-size="16">snappy</text>
<rect x="174.0" y="950.0" width="483.2" height="9" rx="5" fill="#d99a5b"/>
<text x="664.2" y="958.0" class="value" text-anchor="start" font-size="11">0.0692</text>
<rect x="174.0" y="964.0" width="483.4" height="9" rx="5" fill="#6aaed6"/>
<text x="664.4" y="972.0" class="value" text-anchor="start" font-size="11">0.0694</text>
<rect x="174.0" y="978.0" width="483.2" height="9" rx="5" fill="#94c973"/>
<text x="664.2" y="986.0" class="value" text-anchor="start" font-size="11">0.0692</text>
<text x="86.0" y="1009.0" class="detail" text-anchor="start" font-size="16">zstd</text>
<rect x="174.0" y="992.0" width="431.0" height="9" rx="5" fill="#d99a5b"/>
<text x="612.0" y="1000.0" class="value" text-anchor="start" font-size="11">0.0368</text>
<rect x="174.0" y="1006.0" width="431.0" height="9" rx="5" fill="#6aaed6"/>
<text x="612.0" y="1014.0" class="value" text-anchor="start" font-size="11">0.0368</text>
<rect x="174.0" y="1020.0" width="431.0" height="9" rx="5" fill="#94c973"/>
<text x="612.0" y="1028.0" class="value" text-anchor="start" font-size="11">0.0368</text>
<rect x="963.0" y="716.0" width="879.0" height="502.0" rx="24" fill="#f6edff" stroke="#c9d7e4" stroke-width="1.2"/>
<text x="991.0" y="760.0" class="panel-title" text-anchor="start" font-size="29">RANDOM</text>
<text x="1812.0" y="758.0" class="muted" text-anchor="end" font-size="16">ratio</text>
<line x1="1079.0" y1="802.0" x2="1079.0" y2="1164.0" stroke="#d7e3ee" stroke-width="1"/>
<text x="1079.0" y="1188.0" class="axis" text-anchor="middle" font-size="12">0.0002</text>
<line x1="1212.0" y1="802.0" x2="1212.0" y2="1164.0" stroke="#d7e3ee" stroke-width="1"/>
<text x="1212.0" y="1188.0" class="axis" text-anchor="middle" font-size="12">0.001</text>
<line x1="1402.3" y1="802.0" x2="1402.3" y2="1164.0" stroke="#d7e3ee" stroke-width="1"/>
<text x="1402.3" y="1188.0" class="axis" text-anchor="middle" font-size="12">0.01</text>
<line x1="1592.6" y1="802.0" x2="1592.6" y2="1164.0" stroke="#d7e3ee" stroke-width="1"/>
<text x="1592.6" y="1188.0" class="axis" text-anchor="middle" font-size="12">0.1</text>
<line x1="1782.9" y1="802.0" x2="1782.9" y2="1164.0" stroke="#d7e3ee" stroke-width="1"/>
<text x="1782.9" y="1188.0" class="axis" text-anchor="middle" font-size="12">1</text>
<line x1="1079.0" y1="1164.0" x2="1798.0" y2="1164.0" stroke="#6b7280" stroke-width="1.2"/>
<text x="991.0" y="841.0" class="detail" text-anchor="start" font-size="16">gzip</text>
<rect x="1079.0" y="824.0" width="703.9" height="9" rx="5" fill="#d99a5b"/>
<text x="1789.9" y="832.0" class="value" text-anchor="start" font-size="11">1.0002</text>
<rect x="1079.0" y="838.0" width="703.9" height="9" rx="5" fill="#6aaed6"/>
<text x="1789.9" y="846.0" class="value" text-anchor="start" font-size="11">1.0000</text>
<rect x="1079.0" y="852.0" width="704.0" height="9" rx="5" fill="#94c973"/>
<text x="1790.0" y="860.0" class="value" text-anchor="start" font-size="11">1.0003</text>
<text x="991.0" y="883.0" class="detail" text-anchor="start" font-size="16">deflate</text>
<rect x="1079.0" y="866.0" width="703.9" height="9" rx="5" fill="#d99a5b"/>
<text x="1789.9" y="874.0" class="value" text-anchor="start" font-size="11">1.0002</text>
<rect x="1079.0" y="880.0" width="703.9" height="9" rx="5" fill="#6aaed6"/>
<text x="1789.9" y="888.0" class="value" text-anchor="start" font-size="11">1.0000</text>
<rect x="1079.0" y="894.0" width="704.0" height="9" rx="5" fill="#94c973"/>
<text x="1790.0" y="902.0" class="value" text-anchor="start" font-size="11">1.0003</text>
<text x="991.0" y="925.0" class="detail" text-anchor="start" font-size="16">lz4</text>
<rect x="1079.0" y="908.0" width="704.3" height="9" rx="5" fill="#d99a5b"/>
<text x="1790.3" y="916.0" class="value" text-anchor="start" font-size="11">1.0039</text>
<rect x="1079.0" y="922.0" width="703.9" height="9" rx="5" fill="#6aaed6"/>
<text x="1789.9" y="930.0" class="value" text-anchor="start" font-size="11">1.0000</text>
<rect x="1079.0" y="936.0" width="704.3" height="9" rx="5" fill="#94c973"/>
<text x="1790.3" y="944.0" class="value" text-anchor="start" font-size="11">1.0039</text>
<text x="991.0" y="967.0" class="detail" text-anchor="start" font-size="16">snappy</text>
<rect x="1079.0" y="950.0" width="703.9" height="9" rx="5" fill="#d99a5b"/>
<text x="1789.9" y="958.0" class="value" text-anchor="start" font-size="11">1.0001</text>
<rect x="1079.0" y="964.0" width="703.9" height="9" rx="5" fill="#6aaed6"/>
<text x="1789.9" y="972.0" class="value" text-anchor="start" font-size="11">1.0000</text>
<rect x="1079.0" y="978.0" width="703.9" height="9" rx="5" fill="#94c973"/>
<text x="1789.9" y="986.0" class="value" text-anchor="start" font-size="11">1.0001</text>
<text x="991.0" y="1009.0" class="detail" text-anchor="start" font-size="16">zstd</text>
<rect x="1079.0" y="992.0" width="703.9" height="9" rx="5" fill="#d99a5b"/>
<text x="1789.9" y="1000.0" class="value" text-anchor="start" font-size="11">1.0000</text>
<rect x="1079.0" y="1006.0" width="703.9" height="9" rx="5" fill="#6aaed6"/>
<text x="1789.9" y="1014.0" class="value" text-anchor="start" font-size="11">1.0000</text>
<rect x="1079.0" y="1020.0" width="703.9" height="9" rx="5" fill="#94c973"/>
<text x="1789.9" y="1028.0" class="value" text-anchor="start" font-size="11">1.0000</text>
<rect x="76.0" y="1247.0" width="1748.0" height="54.0" rx="18" fill="#f8fbff" stroke="#d7e3ee" stroke-width="1.2"/>
<text x="950.0" y="1270.0" class="detail" text-anchor="middle" font-size="17">Shared fixtures: JSON/Text/Binary/Random x 1 KiB, 64 KiB, 512 KiB</text>
<text x="950.0" y="1290.0" class="muted" text-anchor="middle" font-size="14">Common charted compressors: gzip, deflate, lz4, snappy, zstd. zlib is preserved in Rust/Go raw CSV.</text>
</svg>
