<svg xmlns="http://www.w3.org/2000/svg" width="1900" height="1360" viewBox="0 0 1900 1360">
<defs>
<style><![CDATA[.title,.panel-title{font-family:'Architects Daughter','Comic Sans MS',cursive;fill:#243447;}.detail,.axis,.legend,.value,.muted{font-family:'Comic Mono','SFMono-Regular',monospace;fill:#243447;}.muted{fill:#64748b;}]]></style>
<filter id="shadow" x="-10%" y="-10%" width="120%" height="130%"><feDropShadow dx="0" dy="8" stdDeviation="10" flood-color="#8aa0b6" flood-opacity="0.16"/></filter>
</defs>
<rect width="1900" height="1360" fill="#eef6fb"/>
<rect x="29.0" y="29.0" width="1842" height="1302" rx="34" fill="#fff" stroke="#c7d7e6" stroke-width="2" filter="url(#shadow)"/>
<text x="950.0" y="72.0" class="title" text-anchor="middle" font-size="38">Same-condition Compression Throughput</text>
<text x="950.0" y="110.0" class="muted" text-anchor="middle" font-size="19">Large payloads, higher is better, MiB/s, log scale</text>
<rect x="552.0" y="132.0" width="232.0" height="38.0" rx="13" fill="#f8fbff" stroke="#cbddeb" stroke-width="1.2"/>
<rect x="572" y="145" width="26" height="12" rx="6" fill="#d99a5b"/>
<text x="608.0" y="156.0" class="legend" text-anchor="start" font-size="15">bluetape-rs</text>
<rect x="812.0" y="132.0" width="232.0" height="38.0" rx="13" fill="#f8fbff" stroke="#cbddeb" stroke-width="1.2"/>
<rect x="832" y="145" width="26" height="12" rx="6" fill="#6aaed6"/>
<text x="868.0" y="156.0" class="legend" text-anchor="start" font-size="15">bluetape-go</text>
<rect x="1072.0" y="132.0" width="232.0" height="38.0" rx="13" fill="#f8fbff" stroke="#cbddeb" stroke-width="1.2"/>
<rect x="1092" y="145" width="26" height="12" rx="6" fill="#94c973"/>
<text x="1128.0" y="156.0" class="legend" text-anchor="start" font-size="15">bluetape4k-io</text>
<rect x="58.0" y="188.0" width="879.0" height="502.0" rx="24" fill="#e8f3ff" stroke="#c9d7e4" stroke-width="1.2"/>
<text x="86.0" y="232.0" class="panel-title" text-anchor="start" font-size="29">JSON</text>
<text x="907.0" y="230.0" class="muted" text-anchor="end" font-size="16">MiB/s</text>
<line x1="174.0" y1="274.0" x2="174.0" y2="636.0" stroke="#d7e3ee" stroke-width="1"/>
<text x="174.0" y="660.0" class="axis" text-anchor="middle" font-size="12">50</text>
<line x1="244.3" y1="274.0" x2="244.3" y2="636.0" stroke="#d7e3ee" stroke-width="1"/>
<text x="244.3" y="660.0" class="axis" text-anchor="middle" font-size="12">100</text>
<line x1="355.7" y1="274.0" x2="355.7" y2="636.0" stroke="#d7e3ee" stroke-width="1"/>
<text x="355.7" y="660.0" class="axis" text-anchor="middle" font-size="12">300</text>
<line x1="477.8" y1="274.0" x2="477.8" y2="636.0" stroke="#d7e3ee" stroke-width="1"/>
<text x="477.8" y="660.0" class="axis" text-anchor="middle" font-size="12">1000</text>
<line x1="589.2" y1="274.0" x2="589.2" y2="636.0" stroke="#d7e3ee" stroke-width="1"/>
<text x="589.2" y="660.0" class="axis" text-anchor="middle" font-size="12">3000</text>
<line x1="711.3" y1="274.0" x2="711.3" y2="636.0" stroke="#d7e3ee" stroke-width="1"/>
<text x="711.3" y="660.0" class="axis" text-anchor="middle" font-size="12">10000</text>
<line x1="822.7" y1="274.0" x2="822.7" y2="636.0" stroke="#d7e3ee" stroke-width="1"/>
<text x="822.7" y="660.0" class="axis" text-anchor="middle" font-size="12">30000</text>
<line x1="893.0" y1="274.0" x2="893.0" y2="636.0" stroke="#d7e3ee" stroke-width="1"/>
<text x="893.0" y="660.0" class="axis" text-anchor="middle" font-size="12">60000</text>
<line x1="174.0" y1="636.0" x2="893.0" y2="636.0" stroke="#6b7280" stroke-width="1.2"/>
<text x="86.0" y="313.0" class="detail" text-anchor="start" font-size="16">gzip</text>
<rect x="174.0" y="296.0" width="143.1" height="9" rx="5" fill="#d99a5b"/>
<text x="324.1" y="304.0" class="value" text-anchor="start" font-size="11">205</text>
<rect x="174.0" y="310.0" width="181.7" height="9" rx="5" fill="#6aaed6"/>
<text x="362.7" y="318.0" class="value" text-anchor="start" font-size="11">300</text>
<rect x="174.0" y="324.0" width="150.2" height="9" rx="5" fill="#94c973"/>
<text x="331.2" y="332.0" class="value" text-anchor="start" font-size="11">220</text>
<text x="86.0" y="355.0" class="detail" text-anchor="start" font-size="16">deflate</text>
<rect x="174.0" y="338.0" width="161.9" height="9" rx="5" fill="#d99a5b"/>
<text x="342.9" y="346.0" class="value" text-anchor="start" font-size="11">247</text>
<rect x="174.0" y="352.0" width="182.5" height="9" rx="5" fill="#6aaed6"/>
<text x="363.5" y="360.0" class="value" text-anchor="start" font-size="11">302</text>
<rect x="174.0" y="366.0" width="149.0" height="9" rx="5" fill="#94c973"/>
<text x="330.0" y="374.0" class="value" text-anchor="start" font-size="11">217</text>
<text x="86.0" y="397.0" class="detail" text-anchor="start" font-size="16">lz4</text>
<rect x="174.0" y="380.0" width="397.4" height="9" rx="5" fill="#d99a5b"/>
<text x="578.4" y="388.0" class="value" text-anchor="start" font-size="11">2,518</text>
<rect x="174.0" y="394.0" width="366.4" height="9" rx="5" fill="#6aaed6"/>
<text x="547.4" y="402.0" class="value" text-anchor="start" font-size="11">1,854</text>
<rect x="174.0" y="408.0" width="408.8" height="9" rx="5" fill="#94c973"/>
<text x="589.8" y="416.0" class="value" text-anchor="start" font-size="11">2,815</text>
<text x="86.0" y="439.0" class="detail" text-anchor="start" font-size="16">snappy</text>
<rect x="174.0" y="422.0" width="431.1" height="9" rx="5" fill="#d99a5b"/>
<text x="612.1" y="430.0" class="value" text-anchor="start" font-size="11">3,510</text>
<rect x="174.0" y="436.0" width="396.2" height="9" rx="5" fill="#6aaed6"/>
<text x="577.2" y="444.0" class="value" text-anchor="start" font-size="11">2,488</text>
<rect x="174.0" y="450.0" width="379.6" height="9" rx="5" fill="#94c973"/>
<text x="560.6" y="458.0" class="value" text-anchor="start" font-size="11">2,112</text>
<text x="86.0" y="481.0" class="detail" text-anchor="start" font-size="16">zstd</text>
<rect x="174.0" y="464.0" width="386.1" height="9" rx="5" fill="#d99a5b"/>
<text x="567.1" y="472.0" class="value" text-anchor="start" font-size="11">2,251</text>
<rect x="174.0" y="478.0" width="299.1" height="9" rx="5" fill="#6aaed6"/>
<text x="480.1" y="486.0" class="value" text-anchor="start" font-size="11">954</text>
<rect x="174.0" y="492.0" width="359.0" height="9" rx="5" fill="#94c973"/>
<text x="540.0" y="500.0" class="value" text-anchor="start" font-size="11">1,723</text>
<rect x="963.0" y="188.0" width="879.0" height="502.0" rx="24" fill="#eaf8ef" stroke="#c9d7e4" stroke-width="1.2"/>
<text x="991.0" y="232.0" class="panel-title" text-anchor="start" font-size="29">TEXT</text>
<text x="1812.0" y="230.0" class="muted" text-anchor="end" font-size="16">MiB/s</text>
<line x1="1079.0" y1="274.0" x2="1079.0" y2="636.0" stroke="#d7e3ee" stroke-width="1"/>
<text x="1079.0" y="660.0" class="axis" text-anchor="middle" font-size="12">50</text>
<line x1="1149.3" y1="274.0" x2="1149.3" y2="636.0" stroke="#d7e3ee" stroke-width="1"/>
<text x="1149.3" y="660.0" class="axis" text-anchor="middle" font-size="12">100</text>
<line x1="1260.7" y1="274.0" x2="1260.7" y2="636.0" stroke="#d7e3ee" stroke-width="1"/>
<text x="1260.7" y="660.0" class="axis" text-anchor="middle" font-size="12">300</text>
<line x1="1382.8" y1="274.0" x2="1382.8" y2="636.0" stroke="#d7e3ee" stroke-width="1"/>
<text x="1382.8" y="660.0" class="axis" text-anchor="middle" font-size="12">1000</text>
<line x1="1494.2" y1="274.0" x2="1494.2" y2="636.0" stroke="#d7e3ee" stroke-width="1"/>
<text x="1494.2" y="660.0" class="axis" text-anchor="middle" font-size="12">3000</text>
<line x1="1616.3" y1="274.0" x2="1616.3" y2="636.0" stroke="#d7e3ee" stroke-width="1"/>
<text x="1616.3" y="660.0" class="axis" text-anchor="middle" font-size="12">10000</text>
<line x1="1727.7" y1="274.0" x2="1727.7" y2="636.0" stroke="#d7e3ee" stroke-width="1"/>
<text x="1727.7" y="660.0" class="axis" text-anchor="middle" font-size="12">30000</text>
<line x1="1798.0" y1="274.0" x2="1798.0" y2="636.0" stroke="#d7e3ee" stroke-width="1"/>
<text x="1798.0" y="660.0" class="axis" text-anchor="middle" font-size="12">60000</text>
<line x1="1079.0" y1="636.0" x2="1798.0" y2="636.0" stroke="#6b7280" stroke-width="1.2"/>
<text x="991.0" y="313.0" class="detail" text-anchor="start" font-size="16">gzip</text>
<rect x="1079.0" y="296.0" width="330.0" height="9" rx="5" fill="#d99a5b"/>
<text x="1416.0" y="304.0" class="value" text-anchor="start" font-size="11">1,295</text>
<rect x="1079.0" y="310.0" width="279.4" height="9" rx="5" fill="#6aaed6"/>
<text x="1365.4" y="318.0" class="value" text-anchor="start" font-size="11">787</text>
<rect x="1079.0" y="324.0" width="188.7" height="9" rx="5" fill="#94c973"/>
<text x="1274.7" y="332.0" class="value" text-anchor="start" font-size="11">321</text>
<text x="991.0" y="355.0" class="detail" text-anchor="start" font-size="16">deflate</text>
<rect x="1079.0" y="338.0" width="334.7" height="9" rx="5" fill="#d99a5b"/>
<text x="1420.7" y="346.0" class="value" text-anchor="start" font-size="11">1,356</text>
<rect x="1079.0" y="352.0" width="287.2" height="9" rx="5" fill="#6aaed6"/>
<text x="1373.2" y="360.0" class="value" text-anchor="start" font-size="11">849</text>
<rect x="1079.0" y="366.0" width="185.7" height="9" rx="5" fill="#94c973"/>
<text x="1271.7" y="374.0" class="value" text-anchor="start" font-size="11">312</text>
<text x="991.0" y="397.0" class="detail" text-anchor="start" font-size="16">lz4</text>
<rect x="1079.0" y="380.0" width="651.2" height="9" rx="5" fill="#d99a5b"/>
<text x="1737.2" y="388.0" class="value" text-anchor="start" font-size="11">30,746</text>
<rect x="1079.0" y="394.0" width="478.2" height="9" rx="5" fill="#6aaed6"/>
<text x="1564.2" y="402.0" class="value" text-anchor="start" font-size="11">5,583</text>
<rect x="1079.0" y="408.0" width="625.7" height="9" rx="5" fill="#94c973"/>
<text x="1711.7" y="416.0" class="value" text-anchor="start" font-size="11">23,919</text>
<text x="991.0" y="439.0" class="detail" text-anchor="start" font-size="16">snappy</text>
<rect x="1079.0" y="422.0" width="604.1" height="9" rx="5" fill="#d99a5b"/>
<text x="1690.1" y="430.0" class="value" text-anchor="start" font-size="11">19,314</text>
<rect x="1079.0" y="436.0" width="497.6" height="9" rx="5" fill="#6aaed6"/>
<text x="1583.6" y="444.0" class="value" text-anchor="start" font-size="11">6,760</text>
<rect x="1079.0" y="450.0" width="544.6" height="9" rx="5" fill="#94c973"/>
<text x="1630.6" y="458.0" class="value" text-anchor="start" font-size="11">10,746</text>
<text x="991.0" y="481.0" class="detail" text-anchor="start" font-size="16">zstd</text>
<rect x="1079.0" y="464.0" width="561.8" height="9" rx="5" fill="#d99a5b"/>
<text x="1647.8" y="472.0" class="value" text-anchor="start" font-size="11">12,737</text>
<rect x="1079.0" y="478.0" width="357.8" height="9" rx="5" fill="#6aaed6"/>
<text x="1443.8" y="486.0" class="value" text-anchor="start" font-size="11">1,702</text>
<rect x="1079.0" y="492.0" width="529.2" height="9" rx="5" fill="#94c973"/>
<text x="1615.2" y="500.0" class="value" text-anchor="start" font-size="11">9,235</text>
<rect x="58.0" y="716.0" width="879.0" height="502.0" rx="24" fill="#fff3dd" stroke="#c9d7e4" stroke-width="1.2"/>
<text x="86.0" y="760.0" class="panel-title" text-anchor="start" font-size="29">BINARY</text>
<text x="907.0" y="758.0" class="muted" text-anchor="end" font-size="16">MiB/s</text>
<line x1="174.0" y1="802.0" x2="174.0" y2="1164.0" stroke="#d7e3ee" stroke-width="1"/>
<text x="174.0" y="1188.0" class="axis" text-anchor="middle" font-size="12">50</text>
<line x1="244.3" y1="802.0" x2="244.3" y2="1164.0" stroke="#d7e3ee" stroke-width="1"/>
<text x="244.3" y="1188.0" class="axis" text-anchor="middle" font-size="12">100</text>
<line x1="355.7" y1="802.0" x2="355.7" y2="1164.0" stroke="#d7e3ee" stroke-width="1"/>
<text x="355.7" y="1188.0" class="axis" text-anchor="middle" font-size="12">300</text>
<line x1="477.8" y1="802.0" x2="477.8" y2="1164.0" stroke="#d7e3ee" stroke-width="1"/>
<text x="477.8" y="1188.0" class="axis" text-anchor="middle" font-size="12">1000</text>
<line x1="589.2" y1="802.0" x2="589.2" y2="1164.0" stroke="#d7e3ee" stroke-width="1"/>
<text x="589.2" y="1188.0" class="axis" text-anchor="middle" font-size="12">3000</text>
<line x1="711.3" y1="802.0" x2="711.3" y2="1164.0" stroke="#d7e3ee" stroke-width="1"/>
<text x="711.3" y="1188.0" class="axis" text-anchor="middle" font-size="12">10000</text>
<line x1="822.7" y1="802.0" x2="822.7" y2="1164.0" stroke="#d7e3ee" stroke-width="1"/>
<text x="822.7" y="1188.0" class="axis" text-anchor="middle" font-size="12">30000</text>
<line x1="893.0" y1="802.0" x2="893.0" y2="1164.0" stroke="#d7e3ee" stroke-width="1"/>
<text x="893.0" y="1188.0" class="axis" text-anchor="middle" font-size="12">60000</text>
<line x1="174.0" y1="1164.0" x2="893.0" y2="1164.0" stroke="#6b7280" stroke-width="1.2"/>
<text x="86.0" y="841.0" class="detail" text-anchor="start" font-size="16">gzip</text>
<rect x="174.0" y="824.0" width="323.9" height="9" rx="5" fill="#d99a5b"/>
<text x="504.9" y="832.0" class="value" text-anchor="start" font-size="11">1,219</text>
<rect x="174.0" y="838.0" width="273.4" height="9" rx="5" fill="#6aaed6"/>
<text x="454.4" y="846.0" class="value" text-anchor="start" font-size="11">741</text>
<rect x="174.0" y="852.0" width="189.6" height="9" rx="5" fill="#94c973"/>
<text x="370.6" y="860.0" class="value" text-anchor="start" font-size="11">324</text>
<text x="86.0" y="883.0" class="detail" text-anchor="start" font-size="16">deflate</text>
<rect x="174.0" y="866.0" width="334.0" height="9" rx="5" fill="#d99a5b"/>
<text x="515.0" y="874.0" class="value" text-anchor="start" font-size="11">1,347</text>
<rect x="174.0" y="880.0" width="279.4" height="9" rx="5" fill="#6aaed6"/>
<text x="460.4" y="888.0" class="value" text-anchor="start" font-size="11">786</text>
<rect x="174.0" y="894.0" width="180.6" height="9" rx="5" fill="#94c973"/>
<text x="361.6" y="902.0" class="value" text-anchor="start" font-size="11">297</text>
<text x="86.0" y="925.0" class="detail" text-anchor="start" font-size="16">lz4</text>
<rect x="174.0" y="908.0" width="644.4" height="9" rx="5" fill="#d99a5b"/>
<text x="825.4" y="916.0" class="value" text-anchor="start" font-size="11">28,756</text>
<rect x="174.0" y="922.0" width="475.3" height="9" rx="5" fill="#6aaed6"/>
<text x="656.3" y="930.0" class="value" text-anchor="start" font-size="11">5,427</text>
<rect x="174.0" y="936.0" width="623.4" height="9" rx="5" fill="#94c973"/>
<text x="804.4" y="944.0" class="value" text-anchor="start" font-size="11">23,383</text>
<text x="86.0" y="967.0" class="detail" text-anchor="start" font-size="16">snappy</text>
<rect x="174.0" y="950.0" width="566.5" height="9" rx="5" fill="#d99a5b"/>
<text x="747.5" y="958.0" class="value" text-anchor="start" font-size="11">13,332</text>
<rect x="174.0" y="964.0" width="479.9" height="9" rx="5" fill="#6aaed6"/>
<text x="660.9" y="972.0" class="value" text-anchor="start" font-size="11">5,679</text>
<rect x="174.0" y="978.0" width="529.9" height="9" rx="5" fill="#94c973"/>
<text x="710.9" y="986.0" class="value" text-anchor="start" font-size="11">9,297</text>
<text x="86.0" y="1009.0" class="detail" text-anchor="start" font-size="16">zstd</text>
<rect x="174.0" y="992.0" width="411.5" height="9" rx="5" fill="#d99a5b"/>
<text x="592.5" y="1000.0" class="value" text-anchor="start" font-size="11">2,893</text>
<rect x="174.0" y="1006.0" width="295.3" height="9" rx="5" fill="#6aaed6"/>
<text x="476.3" y="1014.0" class="value" text-anchor="start" font-size="11">920</text>
<rect x="174.0" y="1020.0" width="387.3" height="9" rx="5" fill="#94c973"/>
<text x="568.3" y="1028.0" class="value" text-anchor="start" font-size="11">2,279</text>
<rect x="963.0" y="716.0" width="879.0" height="502.0" rx="24" fill="#f6edff" stroke="#c9d7e4" stroke-width="1.2"/>
<text x="991.0" y="760.0" class="panel-title" text-anchor="start" font-size="29">RANDOM</text>
<text x="1812.0" y="758.0" class="muted" text-anchor="end" font-size="16">MiB/s</text>
<line x1="1079.0" y1="802.0" x2="1079.0" y2="1164.0" stroke="#d7e3ee" stroke-width="1"/>
<text x="1079.0" y="1188.0" class="axis" text-anchor="middle" font-size="12">50</text>
<line x1="1149.3" y1="802.0" x2="1149.3" y2="1164.0" stroke="#d7e3ee" stroke-width="1"/>
<text x="1149.3" y="1188.0" class="axis" text-anchor="middle" font-size="12">100</text>
<line x1="1260.7" y1="802.0" x2="1260.7" y2="1164.0" stroke="#d7e3ee" stroke-width="1"/>
<text x="1260.7" y="1188.0" class="axis" text-anchor="middle" font-size="12">300</text>
<line x1="1382.8" y1="802.0" x2="1382.8" y2="1164.0" stroke="#d7e3ee" stroke-width="1"/>
<text x="1382.8" y="1188.0" class="axis" text-anchor="middle" font-size="12">1000</text>
<line x1="1494.2" y1="802.0" x2="1494.2" y2="1164.0" stroke="#d7e3ee" stroke-width="1"/>
<text x="1494.2" y="1188.0" class="axis" text-anchor="middle" font-size="12">3000</text>
<line x1="1616.3" y1="802.0" x2="1616.3" y2="1164.0" stroke="#d7e3ee" stroke-width="1"/>
<text x="1616.3" y="1188.0" class="axis" text-anchor="middle" font-size="12">10000</text>
<line x1="1727.7" y1="802.0" x2="1727.7" y2="1164.0" stroke="#d7e3ee" stroke-width="1"/>
<text x="1727.7" y="1188.0" class="axis" text-anchor="middle" font-size="12">30000</text>
<line x1="1798.0" y1="802.0" x2="1798.0" y2="1164.0" stroke="#d7e3ee" stroke-width="1"/>
<text x="1798.0" y="1188.0" class="axis" text-anchor="middle" font-size="12">60000</text>
<line x1="1079.0" y1="1164.0" x2="1798.0" y2="1164.0" stroke="#6b7280" stroke-width="1.2"/>
<text x="991.0" y="841.0" class="detail" text-anchor="start" font-size="16">gzip</text>
<rect x="1079.0" y="824.0" width="46.1" height="9" rx="5" fill="#d99a5b"/>
<text x="1132.1" y="832.0" class="value" text-anchor="start" font-size="11">79</text>
<rect x="1079.0" y="838.0" width="99.5" height="9" rx="5" fill="#6aaed6"/>
<text x="1185.5" y="846.0" class="value" text-anchor="start" font-size="11">133</text>
<rect x="1079.0" y="852.0" width="47.2" height="9" rx="5" fill="#94c973"/>
<text x="1133.2" y="860.0" class="value" text-anchor="start" font-size="11">80</text>
<text x="991.0" y="883.0" class="detail" text-anchor="start" font-size="16">deflate</text>
<rect x="1079.0" y="866.0" width="42.5" height="9" rx="5" fill="#d99a5b"/>
<text x="1128.5" y="874.0" class="value" text-anchor="start" font-size="11">76</text>
<rect x="1079.0" y="880.0" width="99.7" height="9" rx="5" fill="#6aaed6"/>
<text x="1185.7" y="888.0" class="value" text-anchor="start" font-size="11">134</text>
<rect x="1079.0" y="894.0" width="44.7" height="9" rx="5" fill="#94c973"/>
<text x="1130.7" y="902.0" class="value" text-anchor="start" font-size="11">78</text>
<text x="991.0" y="925.0" class="detail" text-anchor="start" font-size="16">lz4</text>
<rect x="1079.0" y="908.0" width="683.0" height="9" rx="5" fill="#d99a5b"/>
<text x="1769.0" y="916.0" class="value" text-anchor="start" font-size="11">42,061</text>
<rect x="1079.0" y="922.0" width="502.0" height="9" rx="5" fill="#6aaed6"/>
<text x="1588.0" y="930.0" class="value" text-anchor="start" font-size="11">7,063</text>
<rect x="1079.0" y="936.0" width="564.4" height="9" rx="5" fill="#94c973"/>
<text x="1650.4" y="944.0" class="value" text-anchor="start" font-size="11">13,068</text>
<text x="991.0" y="967.0" class="detail" text-anchor="start" font-size="16">snappy</text>
<rect x="1079.0" y="950.0" width="661.8" height="9" rx="5" fill="#d99a5b"/>
<text x="1747.8" y="958.0" class="value" text-anchor="start" font-size="11">34,130</text>
<rect x="1079.0" y="964.0" width="449.5" height="9" rx="5" fill="#6aaed6"/>
<text x="1535.5" y="972.0" class="value" text-anchor="start" font-size="11">4,206</text>
<rect x="1079.0" y="978.0" width="468.9" height="9" rx="5" fill="#94c973"/>
<text x="1554.9" y="986.0" class="value" text-anchor="start" font-size="11">5,092</text>
<text x="991.0" y="1009.0" class="detail" text-anchor="start" font-size="16">zstd</text>
<rect x="1079.0" y="992.0" width="529.3" height="9" rx="5" fill="#d99a5b"/>
<text x="1615.3" y="1000.0" class="value" text-anchor="start" font-size="11">9,245</text>
<rect x="1079.0" y="1006.0" width="350.7" height="9" rx="5" fill="#6aaed6"/>
<text x="1436.7" y="1014.0" class="value" text-anchor="start" font-size="11">1,588</text>
<rect x="1079.0" y="1020.0" width="501.3" height="9" rx="5" fill="#94c973"/>
<text x="1587.3" y="1028.0" class="value" text-anchor="start" font-size="11">7,009</text>
<rect x="76.0" y="1247.0" width="1748.0" height="54.0" rx="18" fill="#f8fbff" stroke="#d7e3ee" stroke-width="1.2"/>
<text x="950.0" y="1270.0" class="detail" text-anchor="middle" font-size="17">Shared fixtures: JSON/Text/Binary/Random x 1 KiB, 64 KiB, 512 KiB</text>
<text x="950.0" y="1290.0" class="muted" text-anchor="middle" font-size="14">Common charted compressors: gzip, deflate, lz4, snappy, zstd. zlib is preserved in Rust/Go raw CSV.</text>
</svg>
