<svg xmlns="http://www.w3.org/2000/svg" width="1900" height="1360" viewBox="0 0 1900 1360">
<defs>
<style><![CDATA[.title,.panel-title{font-family:'Architects Daughter','Comic Sans MS',cursive;fill:#243447;}.detail,.axis,.legend,.value,.muted{font-family:'Comic Mono','SFMono-Regular',monospace;fill:#243447;}.muted{fill:#64748b;}]]></style>
<filter id="shadow" x="-10%" y="-10%" width="120%" height="130%"><feDropShadow dx="0" dy="8" stdDeviation="10" flood-color="#8aa0b6" flood-opacity="0.16"/></filter>
</defs>
<rect width="1900" height="1360" fill="#eef6fb"/>
<rect x="29.0" y="29.0" width="1842" height="1302" rx="34" fill="#fff" stroke="#c7d7e6" stroke-width="2" filter="url(#shadow)"/>
<text x="950.0" y="72.0" class="title" text-anchor="middle" font-size="38">Same-condition Compression Throughput</text>
<text x="950.0" y="110.0" class="muted" text-anchor="middle" font-size="19">Large payloads, higher is better, MiB/s, log scale</text>
<rect x="552.0" y="132.0" width="232.0" height="38.0" rx="13" fill="#f8fbff" stroke="#cbddeb" stroke-width="1.2"/>
<rect x="572" y="145" width="26" height="12" rx="6" fill="#d99a5b"/>
<text x="608.0" y="156.0" class="legend" text-anchor="start" font-size="15">bluetape-rs</text>
<rect x="812.0" y="132.0" width="232.0" height="38.0" rx="13" fill="#f8fbff" stroke="#cbddeb" stroke-width="1.2"/>
<rect x="832" y="145" width="26" height="12" rx="6" fill="#6aaed6"/>
<text x="868.0" y="156.0" class="legend" text-anchor="start" font-size="15">bluetape-go</text>
<rect x="1072.0" y="132.0" width="232.0" height="38.0" rx="13" fill="#f8fbff" stroke="#cbddeb" stroke-width="1.2"/>
<rect x="1092" y="145" width="26" height="12" rx="6" fill="#94c973"/>
<text x="1128.0" y="156.0" class="legend" text-anchor="start" font-size="15">bluetape4k-io</text>
<rect x="58.0" y="188.0" width="879.0" height="502.0" rx="24" fill="#e8f3ff" stroke="#c9d7e4" stroke-width="1.2"/>
<text x="86.0" y="232.0" class="panel-title" text-anchor="start" font-size="29">JSON</text>
<text x="907.0" y="230.0" class="muted" text-anchor="end" font-size="16">MiB/s</text>
<line x1="174.0" y1="274.0" x2="174.0" y2="636.0" stroke="#d7e3ee" stroke-width="1"/>
<text x="174.0" y="660.0" class="axis" text-anchor="middle" font-size="12">50</text>
<line x1="251.9" y1="274.0" x2="251.9" y2="636.0" stroke="#d7e3ee" stroke-width="1"/>
<text x="251.9" y="660.0" class="axis" text-anchor="middle" font-size="12">100</text>
<line x1="375.4" y1="274.0" x2="375.4" y2="636.0" stroke="#d7e3ee" stroke-width="1"/>
<text x="375.4" y="660.0" class="axis" text-anchor="middle" font-size="12">300</text>
<line x1="510.7" y1="274.0" x2="510.7" y2="636.0" stroke="#d7e3ee" stroke-width="1"/>
<text x="510.7" y="660.0" class="axis" text-anchor="middle" font-size="12">1000</text>
<line x1="634.2" y1="274.0" x2="634.2" y2="636.0" stroke="#d7e3ee" stroke-width="1"/>
<text x="634.2" y="660.0" class="axis" text-anchor="middle" font-size="12">3000</text>
<line x1="769.5" y1="274.0" x2="769.5" y2="636.0" stroke="#d7e3ee" stroke-width="1"/>
<text x="769.5" y="660.0" class="axis" text-anchor="middle" font-size="12">10000</text>
<line x1="893.0" y1="274.0" x2="893.0" y2="636.0" stroke="#d7e3ee" stroke-width="1"/>
<text x="893.0" y="660.0" class="axis" text-anchor="middle" font-size="12">30000</text>
<line x1="174.0" y1="636.0" x2="893.0" y2="636.0" stroke="#6b7280" stroke-width="1.2"/>
<text x="86.0" y="313.0" class="detail" text-anchor="start" font-size="16">gzip</text>
<rect x="174.0" y="296.0" width="158.6" height="9" rx="5" fill="#d99a5b"/>
<text x="339.6" y="304.0" class="value" text-anchor="start" font-size="11">205</text>
<rect x="174.0" y="310.0" width="201.4" height="9" rx="5" fill="#6aaed6"/>
<text x="382.4" y="318.0" class="value" text-anchor="start" font-size="11">300</text>
<rect x="174.0" y="324.0" width="166.4" height="9" rx="5" fill="#94c973"/>
<text x="347.4" y="332.0" class="value" text-anchor="start" font-size="11">220</text>
<text x="86.0" y="355.0" class="detail" text-anchor="start" font-size="16">deflate</text>
<rect x="174.0" y="338.0" width="179.5" height="9" rx="5" fill="#d99a5b"/>
<text x="360.5" y="346.0" class="value" text-anchor="start" font-size="11">247</text>
<rect x="174.0" y="352.0" width="202.3" height="9" rx="5" fill="#6aaed6"/>
<text x="383.3" y="360.0" class="value" text-anchor="start" font-size="11">302</text>
<rect x="174.0" y="366.0" width="165.2" height="9" rx="5" fill="#94c973"/>
<text x="346.2" y="374.0" class="value" text-anchor="start" font-size="11">217</text>
<text x="86.0" y="397.0" class="detail" text-anchor="start" font-size="16">lz4</text>
<rect x="174.0" y="380.0" width="440.5" height="9" rx="5" fill="#d99a5b"/>
<text x="621.5" y="388.0" class="value" text-anchor="start" font-size="11">2,518</text>
<rect x="174.0" y="394.0" width="406.1" height="9" rx="5" fill="#6aaed6"/>
<text x="587.1" y="402.0" class="value" text-anchor="start" font-size="11">1,854</text>
<rect x="174.0" y="408.0" width="453.0" height="9" rx="5" fill="#94c973"/>
<text x="634.0" y="416.0" class="value" text-anchor="start" font-size="11">2,815</text>
<text x="86.0" y="439.0" class="detail" text-anchor="start" font-size="16">snappy</text>
<rect x="174.0" y="422.0" width="477.8" height="9" rx="5" fill="#d99a5b"/>
<text x="658.8" y="430.0" class="value" text-anchor="start" font-size="11">3,510</text>
<rect x="174.0" y="436.0" width="439.1" height="9" rx="5" fill="#6aaed6"/>
<text x="620.1" y="444.0" class="value" text-anchor="start" font-size="11">2,488</text>
<rect x="174.0" y="450.0" width="420.8" height="9" rx="5" fill="#94c973"/>
<text x="601.8" y="458.0" class="value" text-anchor="start" font-size="11">2,112</text>
<text x="86.0" y="481.0" class="detail" text-anchor="start" font-size="16">zstd</text>
<rect x="174.0" y="464.0" width="427.9" height="9" rx="5" fill="#d99a5b"/>
<text x="608.9" y="472.0" class="value" text-anchor="start" font-size="11">2,251</text>
<rect x="174.0" y="478.0" width="331.5" height="9" rx="5" fill="#6aaed6"/>
<text x="512.5" y="486.0" class="value" text-anchor="start" font-size="11">954</text>
<rect x="174.0" y="492.0" width="397.9" height="9" rx="5" fill="#94c973"/>
<text x="578.9" y="500.0" class="value" text-anchor="start" font-size="11">1,723</text>
<rect x="963.0" y="188.0" width="879.0" height="502.0" rx="24" fill="#eaf8ef" stroke="#c9d7e4" stroke-width="1.2"/>
<text x="991.0" y="232.0" class="panel-title" text-anchor="start" font-size="29">TEXT</text>
<text x="1812.0" y="230.0" class="muted" text-anchor="end" font-size="16">MiB/s</text>
<line x1="1079.0" y1="274.0" x2="1079.0" y2="636.0" stroke="#d7e3ee" stroke-width="1"/>
<text x="1079.0" y="660.0" class="axis" text-anchor="middle" font-size="12">50</text>
<line x1="1156.9" y1="274.0" x2="1156.9" y2="636.0" stroke="#d7e3ee" stroke-width="1"/>
<text x="1156.9" y="660.0" class="axis" text-anchor="middle" font-size="12">100</text>
<line x1="1280.4" y1="274.0" x2="1280.4" y2="636.0" stroke="#d7e3ee" stroke-width="1"/>
<text x="1280.4" y="660.0" class="axis" text-anchor="middle" font-size="12">300</text>
<line x1="1415.7" y1="274.0" x2="1415.7" y2="636.0" stroke="#d7e3ee" stroke-width="1"/>
<text x="1415.7" y="660.0" class="axis" text-anchor="middle" font-size="12">1000</text>
<line x1="1539.2" y1="274.0" x2="1539.2" y2="636.0" stroke="#d7e3ee" stroke-width="1"/>
<text x="1539.2" y="660.0" class="axis" text-anchor="middle" font-size="12">3000</text>
<line x1="1674.5" y1="274.0" x2="1674.5" y2="636.0" stroke="#d7e3ee" stroke-width="1"/>
<text x="1674.5" y="660.0" class="axis" text-anchor="middle" font-size="12">10000</text>
<line x1="1798.0" y1="274.0" x2="1798.0" y2="636.0" stroke="#d7e3ee" stroke-width="1"/>
<text x="1798.0" y="660.0" class="axis" text-anchor="middle" font-size="12">30000</text>
<line x1="1079.0" y1="636.0" x2="1798.0" y2="636.0" stroke="#6b7280" stroke-width="1.2"/>
<text x="991.0" y="313.0" class="detail" text-anchor="start" font-size="16">gzip</text>
<rect x="1079.0" y="296.0" width="365.8" height="9" rx="5" fill="#d99a5b"/>
<text x="1451.8" y="304.0" class="value" text-anchor="start" font-size="11">1,295</text>
<rect x="1079.0" y="310.0" width="309.7" height="9" rx="5" fill="#6aaed6"/>
<text x="1395.7" y="318.0" class="value" text-anchor="start" font-size="11">787</text>
<rect x="1079.0" y="324.0" width="209.1" height="9" rx="5" fill="#94c973"/>
<text x="1295.1" y="332.0" class="value" text-anchor="start" font-size="11">321</text>
<text x="991.0" y="355.0" class="detail" text-anchor="start" font-size="16">deflate</text>
<rect x="1079.0" y="338.0" width="371.0" height="9" rx="5" fill="#d99a5b"/>
<text x="1457.0" y="346.0" class="value" text-anchor="start" font-size="11">1,356</text>
<rect x="1079.0" y="352.0" width="318.3" height="9" rx="5" fill="#6aaed6"/>
<text x="1404.3" y="360.0" class="value" text-anchor="start" font-size="11">849</text>
<rect x="1079.0" y="366.0" width="205.8" height="9" rx="5" fill="#94c973"/>
<text x="1291.8" y="374.0" class="value" text-anchor="start" font-size="11">312</text>
<text x="991.0" y="397.0" class="detail" text-anchor="start" font-size="16">lz4</text>
<rect x="1079.0" y="380.0" width="721.8" height="9" rx="5" fill="#d99a5b"/>
<text x="1796.0" y="388.0" class="value" text-anchor="end" font-size="11">30,746</text>
<rect x="1079.0" y="394.0" width="530.0" height="9" rx="5" fill="#6aaed6"/>
<text x="1616.0" y="402.0" class="value" text-anchor="start" font-size="11">5,583</text>
<rect x="1079.0" y="408.0" width="693.5" height="9" rx="5" fill="#94c973"/>
<text x="1779.5" y="416.0" class="value" text-anchor="start" font-size="11">23,919</text>
<text x="991.0" y="439.0" class="detail" text-anchor="start" font-size="16">snappy</text>
<rect x="1079.0" y="422.0" width="669.5" height="9" rx="5" fill="#d99a5b"/>
<text x="1755.5" y="430.0" class="value" text-anchor="start" font-size="11">19,314</text>
<rect x="1079.0" y="436.0" width="551.5" height="9" rx="5" fill="#6aaed6"/>
<text x="1637.5" y="444.0" class="value" text-anchor="start" font-size="11">6,760</text>
<rect x="1079.0" y="450.0" width="603.6" height="9" rx="5" fill="#94c973"/>
<text x="1689.6" y="458.0" class="value" text-anchor="start" font-size="11">10,746</text>
<text x="991.0" y="481.0" class="detail" text-anchor="start" font-size="16">zstd</text>
<rect x="1079.0" y="464.0" width="622.7" height="9" rx="5" fill="#d99a5b"/>
<text x="1708.7" y="472.0" class="value" text-anchor="start" font-size="11">12,737</text>
<rect x="1079.0" y="478.0" width="396.5" height="9" rx="5" fill="#6aaed6"/>
<text x="1482.5" y="486.0" class="value" text-anchor="start" font-size="11">1,702</text>
<rect x="1079.0" y="492.0" width="586.6" height="9" rx="5" fill="#94c973"/>
<text x="1672.6" y="500.0" class="value" text-anchor="start" font-size="11">9,235</text>
<rect x="58.0" y="716.0" width="879.0" height="502.0" rx="24" fill="#fff3dd" stroke="#c9d7e4" stroke-width="1.2"/>
<text x="86.0" y="760.0" class="panel-title" text-anchor="start" font-size="29">BINARY</text>
<text x="907.0" y="758.0" class="muted" text-anchor="end" font-size="16">MiB/s</text>
<line x1="174.0" y1="802.0" x2="174.0" y2="1164.0" stroke="#d7e3ee" stroke-width="1"/>
<text x="174.0" y="1188.0" class="axis" text-anchor="middle" font-size="12">50</text>
<line x1="251.9" y1="802.0" x2="251.9" y2="1164.0" stroke="#d7e3ee" stroke-width="1"/>
<text x="251.9" y="1188.0" class="axis" text-anchor="middle" font-size="12">100</text>
<line x1="375.4" y1="802.0" x2="375.4" y2="1164.0" stroke="#d7e3ee" stroke-width="1"/>
<text x="375.4" y="1188.0" class="axis" text-anchor="middle" font-size="12">300</text>
<line x1="510.7" y1="802.0" x2="510.7" y2="1164.0" stroke="#d7e3ee" stroke-width="1"/>
<text x="510.7" y="1188.0" class="axis" text-anchor="middle" font-size="12">1000</text>
<line x1="634.2" y1="802.0" x2="634.2" y2="1164.0" stroke="#d7e3ee" stroke-width="1"/>
<text x="634.2" y="1188.0" class="axis" text-anchor="middle" font-size="12">3000</text>
<line x1="769.5" y1="802.0" x2="769.5" y2="1164.0" stroke="#d7e3ee" stroke-width="1"/>
<text x="769.5" y="1188.0" class="axis" text-anchor="middle" font-size="12">10000</text>
<line x1="893.0" y1="802.0" x2="893.0" y2="1164.0" stroke="#d7e3ee" stroke-width="1"/>
<text x="893.0" y="1188.0" class="axis" text-anchor="middle" font-size="12">30000</text>
<line x1="174.0" y1="1164.0" x2="893.0" y2="1164.0" stroke="#6b7280" stroke-width="1.2"/>
<text x="86.0" y="841.0" class="detail" text-anchor="start" font-size="16">gzip</text>
<rect x="174.0" y="824.0" width="359.0" height="9" rx="5" fill="#d99a5b"/>
<text x="540.0" y="832.0" class="value" text-anchor="start" font-size="11">1,219</text>
<rect x="174.0" y="838.0" width="303.1" height="9" rx="5" fill="#6aaed6"/>
<text x="484.1" y="846.0" class="value" text-anchor="start" font-size="11">741</text>
<rect x="174.0" y="852.0" width="210.1" height="9" rx="5" fill="#94c973"/>
<text x="391.1" y="860.0" class="value" text-anchor="start" font-size="11">324</text>
<text x="86.0" y="883.0" class="detail" text-anchor="start" font-size="16">deflate</text>
<rect x="174.0" y="866.0" width="370.2" height="9" rx="5" fill="#d99a5b"/>
<text x="551.2" y="874.0" class="value" text-anchor="start" font-size="11">1,347</text>
<rect x="174.0" y="880.0" width="309.7" height="9" rx="5" fill="#6aaed6"/>
<text x="490.7" y="888.0" class="value" text-anchor="start" font-size="11">786</text>
<rect x="174.0" y="894.0" width="200.1" height="9" rx="5" fill="#94c973"/>
<text x="381.1" y="902.0" class="value" text-anchor="start" font-size="11">297</text>
<text x="86.0" y="925.0" class="detail" text-anchor="start" font-size="16">lz4</text>
<rect x="174.0" y="908.0" width="714.2" height="9" rx="5" fill="#d99a5b"/>
<text x="891.0" y="916.0" class="value" text-anchor="end" font-size="11">28,756</text>
<rect x="174.0" y="922.0" width="526.8" height="9" rx="5" fill="#6aaed6"/>
<text x="707.8" y="930.0" class="value" text-anchor="start" font-size="11">5,427</text>
<rect x="174.0" y="936.0" width="691.0" height="9" rx="5" fill="#94c973"/>
<text x="872.0" y="944.0" class="value" text-anchor="start" font-size="11">23,383</text>
<text x="86.0" y="967.0" class="detail" text-anchor="start" font-size="16">snappy</text>
<rect x="174.0" y="950.0" width="627.8" height="9" rx="5" fill="#d99a5b"/>
<text x="808.8" y="958.0" class="value" text-anchor="start" font-size="11">13,332</text>
<rect x="174.0" y="964.0" width="531.9" height="9" rx="5" fill="#6aaed6"/>
<text x="712.9" y="972.0" class="value" text-anchor="start" font-size="11">5,679</text>
<rect x="174.0" y="978.0" width="587.3" height="9" rx="5" fill="#94c973"/>
<text x="768.3" y="986.0" class="value" text-anchor="start" font-size="11">9,297</text>
<text x="86.0" y="1009.0" class="detail" text-anchor="start" font-size="16">zstd</text>
<rect x="174.0" y="992.0" width="456.1" height="9" rx="5" fill="#d99a5b"/>
<text x="637.1" y="1000.0" class="value" text-anchor="start" font-size="11">2,893</text>
<rect x="174.0" y="1006.0" width="327.3" height="9" rx="5" fill="#6aaed6"/>
<text x="508.3" y="1014.0" class="value" text-anchor="start" font-size="11">920</text>
<rect x="174.0" y="1020.0" width="429.3" height="9" rx="5" fill="#94c973"/>
<text x="610.3" y="1028.0" class="value" text-anchor="start" font-size="11">2,279</text>
<rect x="963.0" y="716.0" width="879.0" height="502.0" rx="24" fill="#f6edff" stroke="#c9d7e4" stroke-width="1.2"/>
<text x="991.0" y="760.0" class="panel-title" text-anchor="start" font-size="29">RANDOM</text>
<text x="1812.0" y="758.0" class="muted" text-anchor="end" font-size="16">MiB/s</text>
<line x1="1079.0" y1="802.0" x2="1079.0" y2="1164.0" stroke="#d7e3ee" stroke-width="1"/>
<text x="1079.0" y="1188.0" class="axis" text-anchor="middle" font-size="12">50</text>
<line x1="1156.9" y1="802.0" x2="1156.9" y2="1164.0" stroke="#d7e3ee" stroke-width="1"/>
<text x="1156.9" y="1188.0" class="axis" text-anchor="middle" font-size="12">100</text>
<line x1="1280.4" y1="802.0" x2="1280.4" y2="1164.0" stroke="#d7e3ee" stroke-width="1"/>
<text x="1280.4" y="1188.0" class="axis" text-anchor="middle" font-size="12">300</text>
<line x1="1415.7" y1="802.0" x2="1415.7" y2="1164.0" stroke="#d7e3ee" stroke-width="1"/>
<text x="1415.7" y="1188.0" class="axis" text-anchor="middle" font-size="12">1000</text>
<line x1="1539.2" y1="802.0" x2="1539.2" y2="1164.0" stroke="#d7e3ee" stroke-width="1"/>
<text x="1539.2" y="1188.0" class="axis" text-anchor="middle" font-size="12">3000</text>
<line x1="1674.5" y1="802.0" x2="1674.5" y2="1164.0" stroke="#d7e3ee" stroke-width="1"/>
<text x="1674.5" y="1188.0" class="axis" text-anchor="middle" font-size="12">10000</text>
<line x1="1798.0" y1="802.0" x2="1798.0" y2="1164.0" stroke="#d7e3ee" stroke-width="1"/>
<text x="1798.0" y="1188.0" class="axis" text-anchor="middle" font-size="12">30000</text>
<line x1="1079.0" y1="1164.0" x2="1798.0" y2="1164.0" stroke="#6b7280" stroke-width="1.2"/>
<text x="991.0" y="841.0" class="detail" text-anchor="start" font-size="16">gzip</text>
<rect x="1079.0" y="824.0" width="51.1" height="9" rx="5" fill="#d99a5b"/>
<text x="1137.1" y="832.0" class="value" text-anchor="start" font-size="11">79</text>
<rect x="1079.0" y="838.0" width="110.3" height="9" rx="5" fill="#6aaed6"/>
<text x="1196.3" y="846.0" class="value" text-anchor="start" font-size="11">133</text>
<rect x="1079.0" y="852.0" width="52.3" height="9" rx="5" fill="#94c973"/>
<text x="1138.3" y="860.0" class="value" text-anchor="start" font-size="11">80</text>
<text x="991.0" y="883.0" class="detail" text-anchor="start" font-size="16">deflate</text>
<rect x="1079.0" y="866.0" width="47.1" height="9" rx="5" fill="#d99a5b"/>
<text x="1133.1" y="874.0" class="value" text-anchor="start" font-size="11">76</text>
<rect x="1079.0" y="880.0" width="110.5" height="9" rx="5" fill="#6aaed6"/>
<text x="1196.5" y="888.0" class="value" text-anchor="start" font-size="11">134</text>
<rect x="1079.0" y="894.0" width="49.5" height="9" rx="5" fill="#94c973"/>
<text x="1135.5" y="902.0" class="value" text-anchor="start" font-size="11">78</text>
<text x="991.0" y="925.0" class="detail" text-anchor="start" font-size="16">lz4</text>
<rect x="1079.0" y="908.0" width="757.0" height="9" rx="5" fill="#d99a5b"/>
<text x="1796.0" y="916.0" class="value" text-anchor="end" font-size="11">42,061</text>
<rect x="1079.0" y="922.0" width="556.4" height="9" rx="5" fill="#6aaed6"/>
<text x="1642.4" y="930.0" class="value" text-anchor="start" font-size="11">7,063</text>
<rect x="1079.0" y="936.0" width="625.6" height="9" rx="5" fill="#94c973"/>
<text x="1711.6" y="944.0" class="value" text-anchor="start" font-size="11">13,068</text>
<text x="991.0" y="967.0" class="detail" text-anchor="start" font-size="16">snappy</text>
<rect x="1079.0" y="950.0" width="733.5" height="9" rx="5" fill="#d99a5b"/>
<text x="1796.0" y="958.0" class="value" text-anchor="end" font-size="11">34,130</text>
<rect x="1079.0" y="964.0" width="498.2" height="9" rx="5" fill="#6aaed6"/>
<text x="1584.2" y="972.0" class="value" text-anchor="start" font-size="11">4,206</text>
<rect x="1079.0" y="978.0" width="519.7" height="9" rx="5" fill="#94c973"/>
<text x="1605.7" y="986.0" class="value" text-anchor="start" font-size="11">5,092</text>
<text x="991.0" y="1009.0" class="detail" text-anchor="start" font-size="16">zstd</text>
<rect x="1079.0" y="992.0" width="586.7" height="9" rx="5" fill="#d99a5b"/>
<text x="1672.7" y="1000.0" class="value" text-anchor="start" font-size="11">9,245</text>
<rect x="1079.0" y="1006.0" width="388.7" height="9" rx="5" fill="#6aaed6"/>
<text x="1474.7" y="1014.0" class="value" text-anchor="start" font-size="11">1,588</text>
<rect x="1079.0" y="1020.0" width="555.6" height="9" rx="5" fill="#94c973"/>
<text x="1641.6" y="1028.0" class="value" text-anchor="start" font-size="11">7,009</text>
<rect x="76.0" y="1247.0" width="1748.0" height="54.0" rx="18" fill="#f8fbff" stroke="#d7e3ee" stroke-width="1.2"/>
<text x="950.0" y="1270.0" class="detail" text-anchor="middle" font-size="17">Shared fixtures: JSON/Text/Binary/Random x 1 KiB, 64 KiB, 512 KiB</text>
<text x="950.0" y="1290.0" class="muted" text-anchor="middle" font-size="14">Common charted compressors: gzip, deflate, lz4, snappy, zstd. zlib is preserved in Rust/Go raw CSV.</text>
</svg>
